<svg width="336" height="109" viewBox="0 0 336 109" fill="none" xmlns="http://www.w3.org/2000/svg">
<path d="M283.02 16.1C281.11 14.05 278.49 12.92 275.67 12.92H273.97C272.76 5.52 266.28 0 258.71 0C251.45 0 245.26 4.9 243.65 11.93C239.15 12.12 235.44 15.6 234.95 20.03H169C168.45 20.03 168 20.48 168 21.03C168 21.58 168.45 22.03 169 22.03H236.89V21.03C236.89 17.11 240.1 13.92 244.04 13.92H244.38C245.68 13.98 249.98 14.48 250.76 18.45C250.85 18.92 251.26 19.26 251.74 19.26L251.93 19.24C252.47 19.13 252.82 18.61 252.72 18.07C251.84 13.62 247.86 12.39 245.68 12.05C247.19 6.12 252.53 2 258.71 2C265.64 2 271.39 7.17 272.09 14.04C272.12 14.34 272.34 17.03 272.09 19.46C272.06 19.73 272.14 19.99 272.31 20.19C272.48 20.39 272.72 20.53 272.98 20.55L273.09 20.56C273.6 20.56 274.03 20.17 274.08 19.66C274.26 17.9 274.22 16.09 274.16 14.92H275.67C277.71 14.91 279.69 15.77 281.27 17.35C282.86 18.94 283.81 21.06 283.81 23.03C283.81 27.12 279.78 31.14 275.66 31.14H274.44C273.89 31.14 273.44 31.59 273.44 32.14C273.44 32.69 273.89 33.14 274.44 33.14H275.66C281.73 33.14 285.81 27.91 285.81 23.03C285.8 20.53 284.79 18 283.02 16.1Z" fill="white"/>
<path d="M313.349 35.0651C310.302 35.0651 307.4 35.6615 304.748 36.7426C302.284 31.2938 296.767 27.5038 290.354 27.5038C288.805 27.5038 287.313 27.7275 285.896 28.1376C282.116 23.3535 276.235 20.2781 269.634 20.2781C264.361 20.2781 259.553 22.2414 255.898 25.466C251.415 19.4953 244.237 15.6246 236.144 15.6246C230.633 15.6246 225.549 17.4201 221.442 20.4521C217.098 13.5556 209.38 8.97041 200.572 8.97041C194.303 8.97041 188.585 11.2941 184.24 15.1213C177.62 8.27456 168.31 4 157.985 4C146.406 4 136.105 9.36805 129.441 17.7246C126.281 16.103 122.702 15.1834 118.902 15.1834C110.677 15.1834 103.468 19.4704 99.4051 25.9071C95.5746 23.074 90.8225 21.3964 85.6755 21.3964C78.121 21.3964 71.4192 25.0124 67.2251 30.5855C63.8209 27.5784 59.3258 25.7456 54.3982 25.7456C45.2388 25.7456 37.5716 32.0766 35.603 40.5636C33.1204 38.6749 30.0171 37.5503 26.6443 37.5503C19.1651 37.5503 12.9961 43.0737 12.0432 50.2249C5.19093 51.4737 0 57.4257 0 64.5769C0 72.6414 6.59524 79.1775 14.7327 79.1775C16.6198 79.1775 18.419 78.8234 20.0804 78.1834C20.0678 78.4133 20.0616 78.637 20.0616 78.8669C20.0616 86.9314 26.6568 93.4675 34.7943 93.4675C37.0011 93.4675 39.0887 92.9828 40.9695 92.1254C44.4677 95.642 49.3264 97.8166 54.6991 97.8166C59.0625 97.8166 63.0936 96.3751 66.3223 93.9521C70.0212 99.637 76.4659 103.408 83.801 103.408C90.8037 103.408 96.9914 99.9725 100.759 94.7163C104.314 101.016 111.11 105.272 118.909 105.272C125.824 105.272 131.942 101.923 135.723 96.779C142.387 104.272 152.136 109 163 109C171.959 109 180.153 105.782 186.491 100.457C190.328 103.564 195.224 105.428 200.559 105.428C208.91 105.428 216.182 100.867 219.994 94.126C224.025 99.755 230.652 103.433 238.15 103.433C246.005 103.433 252.901 99.4009 256.863 93.3121C260.324 95.9092 264.637 97.45 269.314 97.45C275.069 97.45 280.273 95.1139 284.015 91.355C286.028 92.2746 288.266 92.7964 290.623 92.7964C298.754 92.7964 305.444 86.7015 306.303 78.8731C308.522 79.5938 310.885 79.9852 313.343 79.9852C325.856 79.9852 336 69.9325 336 57.5314C336.006 45.1178 325.863 35.0651 313.349 35.0651Z" fill="#FDFEFE"/>
</svg>
