<svg width="70" height="71" viewBox="0 0 70 71" fill="none" xmlns="http://www.w3.org/2000/svg">
<path d="M62.5 56.2752C63.3 55.2752 63.7 53.9752 63.7 52.5752V44.3752C63.7 43.5752 63.1 42.9752 62.3 42.9752H56.2C53.4 42.9752 51.1 45.2752 51.1 48.0752V52.5752C51.1 53.9752 51.5 55.1752 52.3 56.2752C51.4 56.4752 50.5 56.7752 49.6 57.1752C47.7 54.3752 44.6 52.3752 41 52.0752C42.3 50.6752 43.1 48.7752 43.1 46.6752V35.4752C43.1 34.6752 42.5 34.0752 41.7 34.0752H33.4C29.8 34.0752 26.9 36.9752 26.9 40.5752V46.6752C26.9 48.7752 27.7 50.5752 29 52.0752C25.4 52.3752 22.3 54.3752 20.4 57.1752C19.6 56.7752 18.7 56.4752 17.7 56.2752C18.4 55.2752 18.9 53.9752 18.9 52.5752V44.3752C18.9 43.5752 18.3 42.9752 17.5 42.9752H11.4C8.6 42.9752 6.3 45.2752 6.3 48.0752V52.5752C6.3 53.9752 6.7 55.1752 7.5 56.2752C3.2 56.9752 0 60.6752 0 65.0752V69.1752C0 69.8752 0.6 70.4752 1.4 70.4752H68.7C69.5 70.4752 70.1 69.8752 70.1 69.0752V64.9752C70 60.6752 66.8 56.9752 62.5 56.2752ZM9 48.0752C9 46.7752 10.1 45.6752 11.4 45.6752H16.1V47.3752C16.1 48.1752 15.4 48.8752 14.6 48.8752H9V48.0752ZM9 51.5752H14.7C15.2 51.5752 15.7 51.4752 16.2 51.2752V52.4752C16.2 54.4752 14.6 56.0752 12.6 56.0752C10.6 56.0752 9 54.4752 9 52.4752V51.5752ZM13.5 58.8752L12.6 59.7752L11.7 58.8752H13.5ZM18.4 63.5752V67.6752H2.7V64.9752C2.7 61.8752 4.9 59.3752 7.9 58.8752L11.6 62.5752C11.9 62.8752 12.2 62.9752 12.6 62.9752C13 62.9752 13.3 62.8752 13.6 62.5752L17.3 58.8752C18 58.9752 18.6 59.1752 19.2 59.4752C18.6 60.8752 18.4 62.1752 18.4 63.5752ZM35 51.9752C32.1 51.9752 29.7 49.5752 29.7 46.6752V44.8752H37.9C38.8 44.8752 39.7 44.6752 40.4 44.2752V46.6752C40.3 49.5752 37.9 51.9752 35 51.9752ZM37.4 54.6752L35 57.0752L32.6 54.6752H37.4ZM29.7 40.5752C29.7 38.4752 31.4 36.8752 33.4 36.8752H40.3V39.6752C40.3 41.0752 39.2 42.1752 37.8 42.1752H29.6V40.5752H29.7ZM48.9 67.7752H46.2H23.8H21.1V65.0752H30C30.8 65.0752 31.4 64.4752 31.4 63.6752C31.4 62.8752 30.8 62.2752 30 62.2752H21.2C21.8 58.3752 24.9 55.2752 28.8 54.7752L34 59.9752C34.3 60.2752 34.6 60.3752 35 60.3752C35.4 60.3752 35.7 60.2752 36 59.9752L41.2 54.7752C45.5 55.3752 48.9 59.0752 48.9 63.5752V67.7752ZM53.9 48.0752C53.9 46.7752 55 45.6752 56.3 45.6752H61V47.3752C61 48.1752 60.3 48.8752 59.5 48.8752H53.8V48.0752H53.9ZM53.9 51.5752H59.6C60.1 51.5752 60.6 51.4752 61.1 51.2752V52.4752C61.1 54.4752 59.5 56.0752 57.5 56.0752C55.5 56.0752 53.9 54.4752 53.9 52.4752V51.5752ZM58.3 58.8752L57.4 59.7752L56.5 58.8752H58.3ZM51.6 67.7752V63.6752C51.6 62.2752 51.3 60.8752 50.9 59.6752C51.5 59.3752 52.1 59.1752 52.8 59.0752L56.5 62.7752C56.8 63.0752 57.1 63.1752 57.5 63.1752C57.9 63.1752 58.2 63.0752 58.5 62.7752L62.2 59.0752C65.1 59.5752 67.4 62.0752 67.4 65.1752V67.8752H51.6V67.7752Z" fill="#441401"/>
<path d="M41.7 9.375C41.2 8.875 40.3 8.875 39.8 9.375L33.1 16.075L30.2 13.175C29.7 12.675 28.8 12.675 28.3 13.175C27.8 13.675 27.8 14.575 28.3 15.075L32.2 18.975C32.5 19.275 32.8 19.375 33.2 19.375C33.6 19.375 33.9 19.275 34.2 18.975L41.9 11.275C42.3 10.775 42.3 9.975 41.7 9.375Z" fill="#FF190A"/>
<path d="M40.6 1.67492C39.9 1.37492 39.1 1.67492 38.8 2.37492C38.5 3.07492 38.8 3.87492 39.5 4.17492C43.5 5.97492 46 9.87492 46 14.2749C46 20.3749 41.1 25.2749 35 25.2749C28.9 25.2749 24 20.3749 24 14.2749C24 9.97492 26.5 5.97492 30.5 4.27492C31.2 3.97492 31.5 3.17492 31.2 2.47492C30.9 1.77492 30.1 1.47492 29.4 1.77492C24.5 3.97492 21.3 8.87492 21.3 14.2749C21.3 21.8749 27.5 27.9749 35 27.9749C42.6 27.9749 48.7 21.7749 48.7 14.2749C48.7 8.77492 45.5 3.87492 40.6 1.67492Z" fill="#FF190A"/>
<path d="M35 0.475098C34.2 0.475098 33.6 1.0751 33.6 1.8751C33.6 2.6751 34.2 3.2751 35 3.2751C35.8 3.2751 36.4 2.6751 36.4 1.8751C36.4 1.0751 35.8 0.475098 35 0.475098Z" fill="#441401"/>
<path d="M36 62.6749C35.7 62.3749 35.4 62.2749 35 62.2749C34.6 62.2749 34.3 62.3749 34 62.6749C33.7 62.9749 33.6 63.2749 33.6 63.6749C33.6 64.0749 33.7 64.3749 34 64.6749C34.3 64.9749 34.6 65.0749 35 65.0749C35.4 65.0749 35.7 64.9749 36 64.6749C36.3 64.3749 36.4 64.0749 36.4 63.6749C36.4 63.2749 36.2 62.9749 36 62.6749Z" fill="#441401"/>
</svg>
