<svg width="70" height="71" viewBox="0 0 70 71" fill="none" xmlns="http://www.w3.org/2000/svg">
<path d="M61.3 62.2751H37.2C36.4 62.2751 35.8 62.8751 35.8 63.6751C35.8 64.4751 36.4 65.0751 37.2 65.0751H59.7C59.1 66.6751 57.6 67.7751 55.8 67.7751H12.3C12.9 66.9751 13.3 66.0751 13.5 65.0751H25.9C26.7 65.0751 27.3 64.4751 27.3 63.6751C27.3 62.8751 26.7 62.2751 25.9 62.2751H12.3C11.5 62.2751 10.9 62.8751 10.9 63.6751C10.9 65.9751 9.1 67.7751 6.8 67.7751C4.5 67.7751 2.7 65.9751 2.7 63.6751V3.1751H52.5V20.0751C52.5 20.8751 53.1 21.4751 53.9 21.4751C54.7 21.4751 55.3 20.8751 55.3 20.0751V1.8751C55.3 1.0751 54.7 0.475098 53.9 0.475098H1.4C0.6 0.475098 0 1.0751 0 1.8751V63.6751C0 67.3751 3.1 70.4751 6.8 70.4751H55.7C59.5 70.4751 62.5 67.3751 62.5 63.6751C62.6 62.8751 62 62.2751 61.3 62.2751Z" fill="#441401"/>
<path d="M32.2 62.6749C31.9 62.3749 31.6 62.2749 31.2 62.2749C30.8 62.2749 30.5 62.3749 30.2 62.6749C29.9 62.9749 29.8 63.2749 29.8 63.6749C29.8 64.0749 29.9 64.3749 30.2 64.6749C30.5 64.9749 30.8 65.0749 31.2 65.0749C31.6 65.0749 31.9 64.9749 32.2 64.6749C32.5 64.3749 32.6 64.0749 32.6 63.6749C32.6 63.2749 32.5 62.9749 32.2 62.6749Z" fill="#441401"/>
<path d="M38.9 38.6753H16.3C15.5 38.6753 14.9 39.2753 14.9 40.0753C14.9 40.8753 15.5 41.4753 16.3 41.4753H38.9C39.7 41.4753 40.3 40.8753 40.3 40.0753C40.3 39.2753 39.7 38.6753 38.9 38.6753Z" fill="#441401"/>
<path d="M38.9 45.2749H16.3C15.5 45.2749 14.9 45.8749 14.9 46.6749C14.9 47.4749 15.5 48.0749 16.3 48.0749H38.9C39.7 48.0749 40.3 47.4749 40.3 46.6749C40.3 45.8749 39.7 45.2749 38.9 45.2749Z" fill="#441401"/>
<path d="M39.9 52.1749C39.6 51.8749 39.3 51.7749 38.9 51.7749C38.5 51.7749 38.2 51.8749 37.9 52.1749C37.6 52.4749 37.5 52.7749 37.5 53.1749C37.5 53.5749 37.6 53.8749 37.9 54.1749C38.2 54.4749 38.5 54.5749 38.9 54.5749C39.3 54.5749 39.6 54.4749 39.9 54.1749C40.2 53.8749 40.3 53.5749 40.3 53.1749C40.3 52.8749 40.1 52.4749 39.9 52.1749Z" fill="#441401"/>
<path d="M32.8 51.7749H16.3C15.5 51.7749 14.9 52.3749 14.9 53.1749C14.9 53.9749 15.5 54.5749 16.3 54.5749H32.8C33.6 54.5749 34.2 53.9749 34.2 53.1749C34.2 52.4749 33.6 51.7749 32.8 51.7749Z" fill="#441401"/>
<path d="M38.7 22.3751C38.8 22.2751 38.8 22.1751 38.9 22.1751C40.8 19.4751 41.3 17.0751 40.2 15.1751C39.1 13.2751 36.7 12.4751 33.5 12.8751C33.4 12.8751 33.3 12.8751 33.2 12.8751C31.9 9.7751 29.9 7.9751 27.7 7.9751C25.4 7.9751 23.5 9.8751 22.2 12.8751C22.1 12.8751 22 12.8751 21.9 12.8751C18.6 12.5751 16.2 13.3751 15.2 15.1751C14.1 17.1751 14.7 19.7751 16.7 22.3751C14.7 25.0751 14.1 27.6751 15.2 29.5751C16.1 31.1751 18.1 31.9751 20.6 31.9751C21.1 31.9751 21.7 31.9751 22.2 31.8751C23.5 34.9751 25.5 36.7751 27.7 36.7751C30 36.7751 31.9 34.8751 33.2 31.8751C33.8 31.9751 34.3 31.9751 34.8 31.9751C37.3 31.9751 39.3 31.1751 40.2 29.5751C41.3 27.6751 40.8 25.2751 38.9 22.5751C38.8 22.4751 38.7 22.4751 38.7 22.3751ZM17.4 16.4751C17.8 15.7751 18.9 15.3751 20.4 15.3751C20.6 15.3751 20.9 15.3751 21.2 15.3751C21 16.2751 20.8 17.2751 20.6 18.2751C19.8 18.8751 19 19.5751 18.4 20.1751C17.3 18.5751 17 17.2751 17.4 16.4751ZM20.4 22.5751C20.3 22.4751 20.3 22.4751 20.2 22.3751C20.3 22.2751 20.3 22.2751 20.4 22.1751C20.4 22.2751 20.4 22.2751 20.4 22.3751C20.4 22.4751 20.4 22.4751 20.4 22.5751ZM17.4 28.2751C17 27.4751 17.3 26.1751 18.4 24.4751C19.1 25.1751 19.8 25.7751 20.6 26.3751C20.7 27.3751 20.9 28.3751 21.2 29.2751C19.2 29.3751 17.9 28.9751 17.4 28.2751ZM31.3 15.9751C31.3 16.0751 31.3 16.1751 31.4 16.2751C31.3 16.2751 31.3 16.1751 31.2 16.1751C31.1 16.1751 31.1 16.0751 31 16.0751C31.2 15.9751 31.2 15.9751 31.3 15.9751ZM27.6 10.5751C28.5 10.5751 29.5 11.5751 30.4 13.3751C29.5 13.6751 28.6 13.9751 27.6 14.3751C26.7 13.9751 25.7 13.6751 24.8 13.3751C25.7 11.5751 26.7 10.5751 27.6 10.5751ZM23.9 15.9751C24 15.9751 24.1 15.9751 24.2 16.0751C24.1 16.0751 24.1 16.1751 24 16.1751C23.9 16.1751 23.9 16.2751 23.8 16.2751C23.9 16.0751 23.9 15.9751 23.9 15.9751ZM23.9 28.7751C23.9 28.6751 23.9 28.5751 23.8 28.4751C23.9 28.4751 23.9 28.5751 24 28.5751C24.1 28.5751 24.1 28.6751 24.2 28.6751C24.1 28.7751 24 28.7751 23.9 28.7751ZM27.6 34.0751C26.7 34.0751 25.7 33.0751 24.8 31.3751C25.7 31.1751 26.6 30.7751 27.6 30.3751C28.5 30.7751 29.5 31.0751 30.4 31.3751C29.5 33.1751 28.5 34.0751 27.6 34.0751ZM31.3 28.7751C31.2 28.7751 31.1 28.7751 31 28.6751C31.1 28.6751 31.1 28.5751 31.2 28.5751C31.3 28.5751 31.3 28.4751 31.4 28.4751C31.4 28.5751 31.4 28.6751 31.3 28.7751ZM32 24.8751C31.3 25.3751 30.6 25.7751 29.9 26.2751C29.1 26.6751 28.4 27.0751 27.6 27.4751C26.9 27.1751 26.1 26.7751 25.3 26.2751C24.5 25.8751 23.8 25.3751 23.2 24.8751C23.1 24.0751 23.1 23.2751 23.1 22.3751C23.1 21.4751 23.1 20.6751 23.2 19.8751C23.9 19.3751 24.6 18.9751 25.3 18.4751C26 18.0751 26.8 17.6751 27.6 17.2751C28.4 17.5751 29.1 17.9751 29.9 18.4751C30.6 18.8751 31.4 19.3751 32 19.8751C32.1 20.6751 32.1 21.4751 32.1 22.3751C32.1 23.2751 32.1 24.0751 32 24.8751ZM37.8 28.2751C37.4 29.0751 36 29.4751 34 29.2751C34.2 28.3751 34.4 27.3751 34.6 26.3751C35.4 25.7751 36.1 25.0751 36.8 24.4751C37.9 26.0751 38.3 27.4751 37.8 28.2751ZM34.9 22.1751C35 22.2751 35 22.2751 35.1 22.3751C35 22.4751 35 22.4751 34.9 22.5751C34.9 22.4751 34.9 22.4751 34.9 22.3751C34.9 22.2751 34.9 22.2751 34.9 22.1751ZM36.8 20.2751C36.1 19.5751 35.4 18.9751 34.6 18.3751C34.5 17.3751 34.3 16.3751 34 15.4751C34.3 15.4751 34.5 15.4751 34.8 15.4751C36.3 15.4751 37.4 15.8751 37.8 16.5751C38.3 17.2751 37.9 18.6751 36.8 20.2751Z" fill="#441401"/>
<path d="M57.9 23.5752C51.2 23.5752 45.8 28.9752 45.8 35.6752C45.8 39.5752 47.6 43.0752 50.5 45.2752V57.9752C50.5 58.5752 50.8 58.9752 51.3 59.2752C51.8 59.4752 52.4 59.3752 52.8 58.9752L57.9 53.9752L63 58.9752C63.3 59.2752 63.6 59.3752 64 59.3752C64.2 59.3752 64.4 59.3752 64.5 59.2752C65 59.0752 65.3 58.5752 65.3 57.9752V45.2752C68.2 43.0752 70 39.5752 70 35.6752C70 28.9752 64.6 23.5752 57.9 23.5752ZM62.5 54.5752L58.8 50.9752C58.3 50.4752 57.4 50.4752 56.9 50.9752L53.2 54.5752V46.7752C54.6 47.3752 56.2 47.6752 57.8 47.6752C59.4 47.6752 61 47.3752 62.4 46.7752V54.5752H62.5ZM57.9 44.9752C52.7 44.9752 48.5 40.7752 48.5 35.5752C48.5 30.3752 52.7 26.1752 57.9 26.1752C63.1 26.1752 67.3 30.3752 67.3 35.5752C67.3 40.7752 63.1 44.9752 57.9 44.9752Z" fill="#FF190A"/>
<path d="M65 33.9753C64.8 33.4753 64.4 33.0753 63.9 33.0753L60.6 32.4753L59.1 29.4753C58.9 28.9753 58.4 28.6753 57.9 28.6753C57.4 28.6753 56.9 28.9753 56.7 29.4753L55.2 32.4753L51.9 32.9753C51.4 33.0753 51 33.3753 50.8 33.8753C50.6 34.3753 50.8 34.8753 51.1 35.2753L53.5 37.5753L53 40.8753C52.9 41.3753 53.1 41.8753 53.5 42.1753C53.8 42.4753 54 42.4753 54.3 42.4753C54.5 42.4753 54.7 42.3753 54.9 42.2753L57.8 40.7753L60.7 42.2753C61.2 42.4753 61.7 42.4753 62.1 42.1753C62.5 41.8753 62.7 41.3753 62.6 40.8753L62 37.5753L64.4 35.2753C65 34.9753 65.1 34.4753 65 33.9753ZM59.8 36.1753C59.5 36.4753 59.3 36.9753 59.4 37.3753L59.6 38.5753L58.5 37.9753C58.1 37.7753 57.6 37.7753 57.2 37.9753L56.1 38.5753L56.3 37.3753C56.4 36.9753 56.2 36.4753 55.9 36.1753L55 35.2753L56.3 35.0753C56.7 34.9753 57.1 34.7753 57.3 34.3753L57.9 33.2753L58.5 34.3753C58.7 34.7753 59.1 35.0753 59.5 35.0753L60.8 35.2753L59.8 36.1753Z" fill="#FF190A"/>
</svg>
