<svg width="364" height="76" viewBox="0 0 364 76" fill="none" xmlns="http://www.w3.org/2000/svg">
<path fill-rule="evenodd" clip-rule="evenodd" d="M236.906 7.41246C228.71 10.367 239.663 8.05503 244.942 7.70584C245.483 7.26062 245.509 6.57942 246.8 6.44312C245.927 6.74447 246.156 7.50598 245.119 7.68911C247.338 13.5113 245.727 9.44858 236.906 7.41246Z" fill="#00542C"/>
<path fill-rule="evenodd" clip-rule="evenodd" d="M188.136 11.84C185.381 12.3978 174.806 11.2166 185.392 10.265C180.148 11.2757 209.063 10.8299 188.136 11.84Z" fill="#00542C"/>
<path fill-rule="evenodd" clip-rule="evenodd" d="M206.402 11.1986C188.189 11.6612 223.793 6.34225 214.779 9.84736C214.632 10.8196 210.464 10.6128 206.402 11.1986Z" fill="#00542C"/>
<path fill-rule="evenodd" clip-rule="evenodd" d="M232.706 62.2176C238.153 61.6842 253.686 62.0025 270.85 61.3038C262.096 62.2531 270.85 61.3038 238.269 62.2999C239.235 62.5315 238.301 62.2985 232.706 62.2176Z" fill="#00542C"/>
<path fill-rule="evenodd" clip-rule="evenodd" d="M319.322 29.7502C321.106 29.8173 320.652 31.5009 317.843 30.6677C320.6 29.9419 313.981 29.5231 319.322 29.7502Z" fill="#00542C"/>
<path fill-rule="evenodd" clip-rule="evenodd" d="M185.485 64.5155C183.455 65.1148 185.485 64.5155 179.059 65.137C180.777 64.1915 179.063 65.0193 185.485 64.5155Z" fill="#00542C"/>
<path fill-rule="evenodd" clip-rule="evenodd" d="M114.568 14.824C115.287 14.7565 135.073 12.3815 130.284 14.2438C130.193 13.9207 113.436 16.7325 114.568 14.824Z" fill="#00542C"/>
<path fill-rule="evenodd" clip-rule="evenodd" d="M206.611 63.3115C200.865 63.9345 196.535 64.004 186.446 64.4704C195.014 63.5719 188.806 64.1662 206.611 63.3115Z" fill="#00542C"/>
<path fill-rule="evenodd" clip-rule="evenodd" d="M231.846 13.5689C232.409 14.3066 227.858 14.7811 231.846 13.5689V13.5689Z" fill="#00542C"/>
<path fill-rule="evenodd" clip-rule="evenodd" d="M223.124 7.92674C223.574 8.10713 223.263 9.53256 221.791 9.03082C221.562 8.47894 222.695 8.5096 223.124 7.92674Z" fill="#00542C"/>
<path fill-rule="evenodd" clip-rule="evenodd" d="M134.519 13.3813C135.52 13.6952 155.133 11.2107 151.117 13.2382C147.916 12.9019 137.084 15.1242 134.519 13.3813Z" fill="#00542C"/>
<path fill-rule="evenodd" clip-rule="evenodd" d="M305.442 59.9362C305.368 59.9397 305.368 59.9397 305.305 59.9426C305.367 59.9144 305.368 59.9397 305.44 59.9109C305.442 59.9362 305.442 59.9362 305.442 59.9362Z" fill="#00542C"/>
<path fill-rule="evenodd" clip-rule="evenodd" d="M109.293 16.81C109.326 16.8344 109.37 16.8583 109.37 16.8583L109.296 16.8617C109.294 16.8359 109.294 16.8359 109.293 16.81Z" fill="#00542C"/>
<path fill-rule="evenodd" clip-rule="evenodd" d="M322.413 58.7682C322.413 58.7682 322.381 58.7697 322.339 58.7717C322.339 58.7717 322.369 58.7447 322.412 58.7427C322.411 58.7343 322.411 58.7343 322.413 58.7682Z" fill="#00542C"/>
<path fill-rule="evenodd" clip-rule="evenodd" d="M297.236 57.0651C297.236 57.074 297.236 57.074 297.236 57.0651C297.226 57.0744 297.226 57.0744 297.226 57.0744C297.226 57.0744 297.226 57.0744 297.236 57.0651Z" fill="#00542C"/>
<path fill-rule="evenodd" clip-rule="evenodd" d="M8.22486 49.5964C8.22486 49.5964 8.22483 49.5964 8.25617 49.595C13.4008 44.4168 4.87661 38.354 25.5892 32.972C25.5369 33.1675 25.2508 33.2985 25.2203 33.5098C25.2786 33.037 25.63 33.1464 25.8271 32.9188C27.8306 32.4048 29.7396 31.8868 32.3197 31.3876C32.2884 31.3891 32.2884 31.3891 32.2884 31.3891C30.8362 31.6421 31.2778 31.0925 27.8767 31.7059C28.1412 32.3398 26.6561 31.9816 25.8271 32.9188C25.7549 32.939 25.6618 32.9602 25.5787 32.9725C27.4252 26.4301 41.1227 23.3761 53.7953 23.0651C53.794 23.04 53.7626 23.0415 53.7626 23.0415C97.375 15.5659 120.556 17.136 211.942 15.303C213.233 13.4206 225.199 15.7368 222.92 12.8891C226.353 13.6509 227.735 12.8556 228.759 16.3247C228.82 16.2967 228.823 16.3469 228.895 16.3184C231.438 12.7988 241.98 11.6143 250.346 13.1765C252.655 10.9608 260.243 14.0203 266.203 12.3211C244.294 10.456 260.582 7.47327 251.769 6.17549C263.655 6.22889 263.564 8.81036 321.042 19.2932C321.283 19.4918 321.562 19.613 321.833 19.7849C321.193 20.537 320.348 19.2336 316.75 20.4774C323.149 20.9066 311.201 22.2244 323.367 22.8103C308.705 22.9295 305.571 24.0173 327.016 25.6271C326.898 26.1615 322.926 26.0882 320.095 26.4061C320.062 26.3825 320.03 26.3589 319.997 26.3352C319.998 26.3603 320 26.3854 319.97 26.412C319.991 26.4111 320.033 26.4091 320.064 26.4076C318.378 26.5961 317.002 26.8959 317.409 27.6491C320.057 28.4143 314.829 27.7621 308.372 28.981C326.388 31.4742 304.091 28.427 325.088 35.5312C324.245 35.8144 324.643 35.4263 321.436 35.7535C322.518 36.987 321.196 36.3524 325.734 37.0203C306.535 36.8745 343.505 39.0465 330.373 39.7653C330.415 40.7371 329.55 40.6099 333.256 40.8048C331.797 41.5115 330.429 41.3912 328.944 41.6206C354.821 48.5371 337.304 47.1538 363.406 53.3966C361.937 53.9107 355.766 53.0678 352.581 54.9722C340.257 54.5616 323.996 60.1623 305.473 59.9344C308.549 58.5304 302.206 59.9203 297.687 58.0594C267.373 59.3434 260.419 60.6697 188.316 63.4168C188.474 63.2499 188.599 63.0341 188.715 62.8608C188.684 62.8623 188.684 62.8623 188.652 62.8637C189.226 64.7675 170.614 63.4776 169.059 65.3053C170.022 65.3104 169.059 65.3053 172.025 65.3756C170.765 65.0991 172.275 66.1277 158.553 65.422C158.81 65.5191 158.26 65.6121 158.591 66.117C157.857 66.1012 157.124 66.1021 156.389 66.0611L156.459 66.0074C153.293 67.4744 128.123 65.9056 128.474 67.7527C102.324 62.9644 48.9879 86.4362 2.68121 52.2247C3.36883 51.7726 4.75054 50.5994 8.22486 49.5964ZM31.0947 28.8597C31.0348 28.9129 31.0117 28.872 31.0289 28.9971C31.0588 28.9705 31.1006 28.9686 31.1319 28.9671C31.0993 28.9434 31.0975 28.9099 31.0947 28.8597ZM311.411 20.0991C311.423 20.1237 311.477 20.1464 311.443 20.0976C311.41 20.074 311.41 20.074 311.408 20.0405C311.41 20.074 311.41 20.074 311.411 20.0991ZM338.986 49.0222C338.923 49.0252 338.85 49.0286 338.786 49.0064C338.787 49.0316 338.787 49.0316 338.788 49.0567C338.85 49.0286 338.923 49.0252 338.987 49.0473C338.986 49.0222 338.986 49.0222 338.986 49.0222ZM343.015 54.6417C342.954 54.6698 342.88 54.6481 342.817 54.651C342.851 54.7082 342.748 54.7382 342.751 54.7884C342.821 54.7348 342.956 54.7032 343.015 54.6417ZM338.744 50.7629C338.941 50.7284 339.01 50.8343 339.177 50.8265C339.038 50.7742 338.87 50.757 338.742 50.7126C338.743 50.7378 338.743 50.7378 338.744 50.7629ZM332.783 44.462C332.813 44.4354 332.856 44.4586 332.886 44.432C332.855 44.4334 332.813 44.4354 332.75 44.4384C332.75 44.43 332.781 44.4285 332.783 44.462ZM325.972 56.9969L325.908 56.9747C325.836 57.0032 325.773 57.0062 325.712 57.0426C325.775 57.0313 325.879 57.0264 325.972 56.9969ZM323.696 40.5916C323.727 40.5901 323.801 40.5867 323.863 40.5837C323.829 40.5266 323.726 40.565 323.692 40.5162C323.693 40.533 323.695 40.5665 323.696 40.5916ZM319.664 41.1591C319.694 41.1325 319.769 41.1542 319.799 41.1276C319.726 41.131 319.663 41.134 319.632 41.1355C319.663 41.1256 319.664 41.1591 319.664 41.1591ZM318.847 34.5238C318.801 34.4504 318.54 34.278 318.968 34.2495C318.863 34.2544 318.772 34.3091 318.636 34.3154C318.702 34.3711 318.771 34.477 318.847 34.5238ZM315.422 47.5456C315.422 47.5456 315.422 47.5456 315.421 47.5205C315.391 47.5471 315.349 47.5491 315.349 47.5491C315.36 47.5486 315.339 47.5496 315.422 47.5456ZM312.067 56.4005C312.067 56.4005 312.067 56.4005 312.066 56.3753C312.036 56.4019 312.036 56.4019 312.038 56.4354L312.067 56.4005ZM308.845 44.7827C308.814 44.7842 308.814 44.7842 308.813 44.7591C308.751 44.7872 308.751 44.7872 308.678 44.7906C308.721 44.8137 308.814 44.7842 308.845 44.7827ZM308.907 58.1778C308.874 58.1541 308.83 58.1226 308.798 58.099C308.799 58.1241 308.769 58.1507 308.769 58.1507C308.8 58.1492 308.865 58.1797 308.907 58.1778ZM302.263 21.8896C302.241 21.8655 302.198 21.8507 302.323 21.8364C302.217 21.8162 302.123 21.8206 302.019 21.8255C302.124 21.8457 302.188 21.8595 302.263 21.8896ZM294.857 19.6778C294.871 19.3497 294.967 19.1941 295.12 18.9183C295.188 19.0158 293.505 19.0698 294.857 19.6778ZM295.181 18.3026C295.255 18.3243 295.319 18.3464 295.354 18.4036C295.384 18.377 295.382 18.3435 295.424 18.3415C295.289 18.373 295.283 18.2642 295.181 18.3026ZM299.946 53.1513C299.946 53.1513 299.945 53.1262 299.944 53.1011C299.821 53.1656 299.922 53.0853 299.491 53.2567C299.624 53.1917 299.746 53.1356 299.946 53.1513ZM297.208 57.125C297.206 57.0999 297.227 57.0905 297.236 57.0733C297.257 57.0723 297.278 57.0713 297.31 57.0866C297.278 57.0629 297.248 57.0895 297.246 57.0644L297.215 57.0659C297.225 57.0654 297.226 57.0738 297.236 57.0733C297.206 57.0915 297.132 57.0782 297.208 57.125ZM299.083 48.7931C298.384 49.0275 298.679 48.6778 296.12 49.9484C296.962 49.4554 298.001 49.1127 299.083 48.7931ZM294.759 48.1992C294.728 48.2006 294.686 48.2026 294.654 48.2041C294.689 48.2612 294.554 48.2844 294.599 48.341C294.638 48.2804 294.698 48.2272 294.759 48.1992ZM292.644 22.527C292.844 22.5428 292.981 22.5699 293.141 22.6127C292.971 22.5704 292.773 22.5797 292.64 22.4516C292.641 22.4767 292.643 22.5019 292.644 22.527ZM291.749 37.9902C291.81 37.9537 291.946 37.9473 292.006 37.8941C291.943 37.8971 291.808 37.9286 291.744 37.9064C291.746 37.9316 291.747 37.9567 291.749 37.9902ZM290.261 30.186C290.261 30.186 290.261 30.186 290.292 30.1845C290.292 30.1845 290.261 30.186 290.26 30.1609C290.261 30.186 290.261 30.186 290.261 30.186ZM288.931 15.9776L288.961 15.951C288.931 15.9776 288.898 15.954 288.898 15.954C288.899 15.9791 288.931 15.9776 288.931 15.9776ZM290.079 50.3334C290.026 50.3275 290.023 50.2689 290.019 50.395C290.049 50.3684 290.016 50.3364 290.079 50.3334ZM272.406 12.4069C272.438 12.4305 272.47 12.4291 272.513 12.4522L272.544 12.4508C272.47 12.4291 272.47 12.4291 272.406 12.4069ZM282.116 11.1272C282.118 11.1775 282.181 11.1745 282.184 11.2331C282.214 11.2065 282.181 11.1745 282.211 11.1479C282.19 11.1489 282.148 11.1509 282.116 11.1272ZM285.344 29.6703C285.312 29.6717 285.312 29.6717 285.312 29.6717C285.305 29.7225 285.138 29.7387 285.128 29.9407C285.059 29.818 285.18 29.7368 285.344 29.6703ZM285.41 56.186C285.065 55.9924 284.635 55.979 284.196 55.9997C285.37 56.0284 285.028 56.2795 285.41 56.186ZM281.687 11.1474L281.716 11.0873C281.674 11.0893 281.675 11.106 281.65 11.04C281.803 11.1587 281.791 11.1257 281.687 11.1474ZM281.871 20.205C281.934 20.202 282.007 20.1986 282.07 20.1957C281.965 20.2006 281.933 20.1769 281.869 20.1548C281.87 20.1799 281.87 20.1799 281.871 20.205ZM281.588 13.5781C281.452 13.5845 281.325 13.5653 281.191 13.5968C281.266 13.6185 281.391 13.6126 281.456 13.6599C281.486 13.6333 281.516 13.6067 281.588 13.5781ZM281.999 31.1373C282.071 31.1087 282.134 31.1058 282.134 31.1058C282.101 31.0821 282.071 31.1087 281.996 31.087C281.998 31.1121 281.998 31.1121 281.999 31.1373ZM278.143 31.2684C278.143 31.2684 278.112 31.2699 278.11 31.2447C278.08 31.2713 278.038 31.2733 278.007 31.2748C278.049 31.2728 278.078 31.2378 278.143 31.2684ZM276.868 55.6226C276.867 55.5975 276.834 55.5739 276.865 55.5724C276.865 55.5724 276.865 55.5724 276.834 55.5739C276.865 55.5724 276.867 55.5975 276.868 55.6226ZM276.266 35.3022C275.965 35.3416 275.644 35.4155 275.375 35.4785C275.432 35.375 275.997 35.9529 276.266 35.3022ZM273.396 16.0204C272.999 16.2405 273.386 16.0292 272.507 16.8094C272.831 16.6094 273.079 16.3543 273.396 16.0204ZM272.993 30.7049C272.992 30.6798 273.023 30.6783 273.023 30.6783C272.992 30.6798 272.96 30.6812 272.929 30.6827C272.93 30.7078 272.992 30.6798 272.993 30.7049ZM273.905 51.9257C273.936 51.9242 273.936 51.9242 274.009 51.9208C273.915 51.9169 273.989 51.9302 273.922 51.8494L273.932 51.8489C273.898 51.7917 273.925 51.7149 273.954 51.6632C273.904 51.7159 273.918 51.774 273.911 51.8499L273.89 51.8509C273.923 51.8829 273.911 51.8499 273.905 51.9257ZM270.49 22.5287C270.426 22.5065 270.353 22.51 270.289 22.4794C270.29 22.5046 270.26 22.5395 270.23 22.5577C270.356 22.5602 270.353 22.51 270.49 22.5287ZM268.491 15.1515C268.543 15.1407 268.461 15.1781 268.566 15.1732C268.449 15.1367 268.503 15.1761 268.359 15.0234C268.362 15.0821 268.363 15.1072 268.335 15.1589C268.366 15.1574 268.429 15.1545 268.491 15.1515ZM264.509 27.7211C264.446 27.7241 264.342 27.729 264.248 27.7334C264.178 27.7955 264.182 27.8708 264.122 27.924C264.331 27.9142 264.167 27.9807 264.509 27.7211ZM263.137 21.8842C263.137 21.8842 263.136 21.8591 263.167 21.8576C263.136 21.8591 263.136 21.8591 263.104 21.8606C263.137 21.8842 263.136 21.8591 263.137 21.8842ZM257.645 33.6434C257.571 33.6217 257.572 33.6468 257.508 33.6247C257.508 33.6247 257.436 33.6532 257.374 33.6562C257.478 33.6513 257.551 33.6478 257.645 33.6434ZM257.23 53.1638C257.26 53.1372 257.29 53.1022 257.331 53.0835C257.299 53.085 257.299 53.085 257.226 53.0884C257.269 53.1032 257.227 53.1052 257.23 53.1638ZM250.244 46.8776C250.035 46.7027 249.997 46.5702 249.988 46.4111C249.571 46.6406 249.183 46.8184 248.692 47.0346C249.181 46.978 249.774 46.8997 250.244 46.8776ZM243.039 37.907C243.038 37.8819 243.069 37.8804 243.111 37.8784C243.078 37.8548 243.111 37.8784 243.032 37.773C243.033 37.7981 243.036 37.8484 243.039 37.907ZM242.969 37.776C243.001 37.7745 243.001 37.7745 243.031 37.7479C243.031 37.7479 242.999 37.7494 242.967 37.7257C242.991 37.7833 242.999 37.741 242.969 37.776ZM236.371 35.2071C236.34 35.217 236.284 35.1357 236.171 35.1913C236.232 35.1549 236.309 35.2101 236.371 35.2071ZM224.69 38.1829C224.627 38.1859 224.587 38.213 224.554 38.1893C224.558 38.248 224.422 38.2543 224.498 38.3011C224.558 38.2647 224.63 38.2361 224.69 38.1829ZM224.38 53.4255C224.379 53.4004 224.411 53.424 224.41 53.3989C224.38 53.4255 224.305 53.4038 224.244 53.4319C224.307 53.429 224.349 53.427 224.38 53.4255ZM223.42 57.9535C223.417 57.9032 223.354 57.9062 223.382 57.8461C223.351 57.8476 223.288 57.8505 223.247 57.8525C223.29 57.8756 223.386 57.9047 223.42 57.9535ZM222.759 51.7137C222.758 51.6886 222.789 51.6871 222.787 51.6536C222.726 51.6817 222.652 51.66 222.592 51.7216C222.655 51.7186 222.686 51.7172 222.759 51.7137ZM215.918 28.4886C215.917 28.4635 215.917 28.4635 215.915 28.4383C215.885 28.4649 215.917 28.4635 215.887 28.4901C215.918 28.4886 215.918 28.4886 215.918 28.4886ZM212.331 17.4757L212.33 17.4506C212.33 17.4506 212.331 17.4757 212.259 17.5042C212.331 17.4757 212.332 17.5008 212.331 17.4757ZM212.115 38.162C212.113 38.1369 212.112 38.1117 212.112 38.1117C212.051 38.1398 211.976 38.1181 211.914 38.1211C211.978 38.1433 212.051 38.1398 212.115 38.162ZM205.935 23.5187C205.965 23.4921 206.069 23.4872 206.067 23.4537C205.933 23.4852 205.93 23.435 205.838 23.4645C205.87 23.4881 205.933 23.4852 205.935 23.5187ZM205.702 21.7332C205.867 21.6751 205.741 21.6642 206.092 21.5805C206.092 21.5805 206.092 21.5805 206.122 21.5539C205.946 21.5958 205.939 21.6632 205.598 21.7381C205.64 21.7361 205.64 21.7361 205.702 21.7332ZM198.931 54.0692C199.064 54.0126 199.064 54.0126 199.185 53.9229C199.019 53.9476 198.659 53.8805 198.931 54.0692ZM195.889 19.9284C195.888 19.9033 195.857 19.9048 195.855 19.8797C195.824 19.8811 195.751 19.8846 195.751 19.8846C195.793 19.8826 195.825 19.9063 195.889 19.9284ZM187.735 39.6032C187.704 39.6047 187.704 39.6047 187.631 39.6081C187.853 39.6564 187.654 40.4381 187.735 39.6032ZM180.505 18.2852C180.506 18.3103 180.506 18.3103 180.476 18.3453C180.508 18.3438 180.539 18.3424 180.581 18.3404C180.537 18.3089 180.537 18.3089 180.505 18.2852ZM183.624 50.9449C183.624 50.9449 183.622 50.9198 183.654 50.9183C183.591 50.9212 183.518 50.9247 183.455 50.9276C183.519 50.9498 183.591 50.9212 183.624 50.9449ZM183.223 58.2755C183.223 58.2755 183.191 58.277 183.19 58.2519C182.665 58.4109 182.131 58.4109 181.613 58.5108C182.132 58.436 182.661 58.3523 183.223 58.2755ZM172.052 54.2094C171.987 54.1537 172.049 54.1507 172.047 54.1005C172.017 54.1271 171.987 54.1537 171.948 54.2143C171.99 54.2123 171.99 54.2123 172.052 54.2094ZM170.651 33.0451C170.784 32.9885 170.783 32.9634 170.907 32.924C170.771 32.9304 170.644 32.9111 170.477 32.919C170.511 32.9678 170.647 32.9614 170.651 33.0451ZM168.982 57.6614C168.984 57.6865 168.922 57.7146 168.882 57.75C168.798 57.7372 169.716 57.6772 168.982 57.6614ZM159.127 48.2615C159.158 48.26 159.158 48.26 159.158 48.26C159.218 48.2152 159.168 48.2511 159.353 48.192C159.31 48.1689 159.228 48.1895 159.127 48.2615ZM167.195 41.7704C167.182 41.5276 167.24 41.4492 167.308 41.3369C167.186 41.4015 167.192 41.334 166.998 41.8048C167.061 41.8019 167.196 41.7955 167.195 41.7704ZM166.104 60.9952C166.039 60.9479 165.964 60.9178 165.899 60.8705C165.903 60.9543 165.903 60.9543 165.876 61.0311C165.896 61.005 166.031 60.9986 166.104 60.9952ZM165.357 60.1489C165.325 60.1253 165.323 60.1001 165.355 60.0987C165.303 60.1095 165.322 60.075 165.326 60.1504C165.326 60.1504 165.326 60.1504 165.357 60.1489ZM160.494 38.4593C160.555 38.4312 160.691 38.4248 160.752 38.3967C160.617 38.4031 160.491 38.409 160.356 38.4154C160.397 38.4051 160.43 38.4287 160.494 38.4593ZM159.71 49.7535C159.24 49.7756 158.819 49.9297 158.359 49.9513C158.247 49.8139 159.94 50.3303 159.71 49.7535ZM159.246 60.9738C159.181 60.9349 158.972 61.1462 158.706 60.8649C158.648 60.9516 158.513 60.9831 158.379 61.0146C158.538 61.0491 158.565 60.9806 159.246 60.9738ZM153.042 23.5233C152.97 23.5518 152.972 23.5853 152.94 23.5868C153.045 23.5819 153.079 23.6306 153.173 23.6262C153.168 23.5425 153.044 23.5735 153.042 23.5233ZM154.565 42.0962C154.298 41.9996 154.1 42.0089 153.758 41.8907C153.794 41.973 153.69 41.9779 153.694 42.0532C153.899 41.968 154.303 42.0833 154.565 42.0962ZM151.843 19.928C151.771 19.9565 151.709 19.9595 151.646 19.9624C151.785 20.0063 152.049 20.0526 152.126 20.1245C152.089 20.0172 152.2 19.9448 151.843 19.928ZM153.258 56.1348C153.258 56.1348 153.321 56.1319 153.394 56.1285C153.32 56.1068 153.287 56.0831 153.254 56.0511C153.256 56.0846 153.299 56.1078 153.258 56.1348ZM152.082 32.9285C152.153 32.8748 152.248 32.8955 152.339 32.8325C152.14 32.8418 152.078 32.8448 151.942 32.8512C152.006 32.8817 152.048 32.8797 152.082 32.9285ZM152.645 65.7421C152.612 65.7184 152.508 65.7233 152.506 65.6898L152.443 65.6928C152.486 65.7076 152.467 65.7504 152.645 65.7421ZM133.232 24.4808C133.201 24.4822 133.16 24.5093 133.13 24.5359C133.266 24.5295 133.33 24.5517 133.393 24.5488C133.328 24.5015 133.296 24.5029 133.232 24.4808ZM134.875 31.0772L134.876 31.1024L134.938 31.0743C134.917 31.0753 134.875 31.0772 134.875 31.0772ZM146.886 53.8744C146.949 53.8714 146.949 53.8714 146.947 53.8463C146.917 53.8729 146.886 53.8744 146.813 53.8778C146.823 53.8773 146.887 53.8995 146.886 53.8744ZM138.659 25.9043C138.596 25.9073 138.595 25.8821 138.595 25.8821C138.596 25.9073 138.565 25.9087 138.565 25.9087C138.596 25.9073 138.596 25.9073 138.659 25.9043ZM138.374 35.3869C138.43 35.2751 138.502 35.2466 138.559 35.1348C138.423 35.1412 138.226 35.1756 138.162 35.1535C138.231 35.2594 138.306 35.2894 138.374 35.3869ZM137.876 51.4191C137.906 51.3925 137.979 51.389 138.008 51.3541C137.905 51.3841 137.842 51.387 137.78 51.39C137.77 51.3989 137.832 51.3959 137.876 51.4191ZM134.906 18.0304C134.979 18.027 135.039 17.9738 135.101 17.9709C135.037 17.9487 134.966 17.9772 134.902 17.9551C134.902 17.9718 134.904 17.9969 134.906 18.0304ZM135.798 35.7768C135.069 35.4585 135.805 35.7093 133.613 35.4515C134.316 35.4772 134.991 35.5713 135.798 35.7768ZM132.304 31.3577C132.146 31.34 132.193 31.2454 131.565 31.233C131.435 31.3483 131.306 31.2956 131.174 31.3606C131.539 31.335 131.904 31.3178 132.304 31.3577ZM126.17 43.4326C126.137 43.4089 126.137 43.4089 126.095 43.4109C126.098 43.4612 126.097 43.436 126.068 43.4961C126.098 43.4612 126.097 43.436 126.17 43.4326ZM120.509 59.4391C120.621 59.3834 120.561 59.445 120.557 59.1765C120.526 59.178 120.495 59.1795 120.495 59.1795C120.561 59.2519 120.639 59.3238 120.509 59.4391ZM118.751 33.003C119.005 32.8567 119.272 32.7686 119.544 32.9656C119.279 32.8942 119.039 32.7208 118.748 32.9527C118.748 32.9527 118.749 32.9779 118.751 33.003ZM117.306 26.5903C117.273 26.5666 117.272 26.5415 117.27 26.508C117.272 26.5331 117.273 26.5582 117.202 26.5952C117.275 26.5917 117.275 26.5917 117.306 26.5903ZM117.289 49.2148C117.36 49.1862 117.486 49.1803 117.621 49.1739C117.557 49.1518 117.453 49.1567 117.39 49.1596C117.492 49.0961 117.587 49.1252 117.679 49.0705C117.381 49.1769 117.649 49.0971 117.085 49.1236C117.159 49.137 117.225 49.1926 117.289 49.2148ZM113.883 61.2116C113.811 61.2402 113.717 61.2446 113.654 61.2475C113.753 61.1338 113.547 61.2022 113.582 61.2761C113.687 61.2796 113.749 61.2515 113.883 61.2116ZM107.384 20.82L107.416 20.8185C107.333 20.8392 106.554 20.5652 107.384 20.82ZM106.079 20.1007C106.077 20.0756 106.11 20.0992 106.109 20.0741C106.077 20.0756 106.077 20.0756 106.076 20.0505C106.077 20.0756 106.077 20.0756 106.079 20.1007ZM107.888 64.222C107.993 64.2171 108.118 64.2112 108.223 64.2063C108.145 64.126 107.988 64.1333 107.851 64.1146C107.853 64.1397 107.917 64.1619 107.888 64.222ZM107.545 58.4207C107.543 58.3955 107.542 58.362 107.54 58.3369C107.509 58.3384 107.478 58.3399 107.434 58.3167C107.469 58.3739 107.511 58.3719 107.545 58.4207ZM106.606 55.9548C106.678 55.9263 106.676 55.8928 106.738 55.8898C106.676 55.8928 106.676 55.8928 106.601 55.8711C106.603 55.9046 106.604 55.9297 106.606 55.9548ZM97.3345 23.9541C97.3059 24.0058 97.3404 24.0629 97.3117 24.1147C97.3117 24.1147 97.3744 24.1117 97.4162 24.1097C97.3717 24.0615 97.369 24.0112 97.3345 23.9541ZM103.86 37.0365C103.592 36.9148 104.002 36.9459 103.763 36.4031C103.693 36.4567 103.738 36.5134 103.667 36.5671C103.931 36.6134 103.81 36.5016 103.86 37.0365ZM97.3696 18.966C97.4427 18.9625 97.4427 18.9625 97.474 18.9611C97.4413 18.9374 97.3683 18.9409 97.3369 18.9423C97.3683 18.9409 97.3696 18.966 97.3696 18.966ZM97.6746 32.0222C97.7464 31.9936 97.8403 31.9892 97.9012 31.9527C97.7641 31.934 97.597 31.9419 97.4717 31.9478C97.5361 31.9783 97.5988 31.9754 97.6746 32.0222ZM93.0764 18.3705C93.1077 18.3691 93.1495 18.3671 93.1481 18.342C93.0764 18.3705 93.0137 18.3735 92.9524 18.4016C93.0151 18.3986 93.0451 18.372 93.0764 18.3705ZM92.6914 21.7214C92.6587 21.6977 92.6587 21.6977 92.6587 21.6977C92.6274 21.6992 92.5961 21.7007 92.5961 21.7007C92.6587 21.6977 92.66 21.7228 92.6914 21.7214ZM90.4383 31.2127C90.3625 31.1659 90.2998 31.1688 90.2967 31.1102C90.2263 31.1639 90.1963 31.1905 90.1677 31.2422C90.2412 31.2471 90.3443 31.2171 90.4383 31.2127ZM80.0926 20.0981C80.0627 20.1247 80.0627 20.1247 80.0627 20.1247C80.0627 20.1247 80.0627 20.1247 80.094 20.1232C80.094 20.1232 80.094 20.1232 80.0926 20.0981ZM85.383 29.8808C85.3068 29.8256 85.4112 29.8207 85.3772 29.7719C85.3054 29.8005 85.3085 29.8591 85.2472 29.8872C85.3099 29.8842 85.3086 29.8591 85.383 29.8808ZM81.8646 43.6794C81.8646 43.6794 81.8646 43.6794 81.8633 43.6542L81.7915 43.6828L81.8646 43.6794ZM81.5244 33.6637C81.5957 33.6268 81.2188 33.6277 81.4141 33.5598C81.019 33.6119 81.3941 33.5775 80.4533 33.605C80.852 33.6198 81.213 33.5189 81.5244 33.6637ZM78.7445 60.5988C78.7745 60.5722 78.7404 60.5234 78.77 60.4885C78.71 60.5417 78.6787 60.5431 78.6401 60.6037C78.6819 60.6018 78.7132 60.6003 78.7445 60.5988ZM74.4664 44.7243C74.4664 44.7243 74.4351 44.7258 74.4337 44.7007C74.4351 44.7258 74.4037 44.7273 74.4037 44.7273C74.4037 44.7273 74.4351 44.7258 74.4664 44.7243ZM73.3719 63.8738C73.3705 63.8486 73.3705 63.8486 73.3705 63.8486C73.2107 63.7974 72.6054 63.8343 73.3719 63.8738ZM72.9933 63.6481C73.0232 63.6215 73.0232 63.6215 73.0528 63.5866C73.0214 63.588 73.0214 63.588 72.9901 63.5895C72.9919 63.623 72.9919 63.623 72.9933 63.6481ZM70.6066 24.9518C70.6066 24.9518 70.7383 24.87 70.8618 24.8306C69.9396 25.0084 69.0029 24.9181 68.0721 24.9368C68.9358 24.8373 69.7671 24.7227 70.6066 24.9518ZM68.3178 33.0009C68.2864 33.0024 68.2538 32.9787 68.2538 32.9787C68.2551 33.0038 68.2551 33.0038 68.2238 33.0053C68.2446 33.0043 68.2447 33.0043 68.3178 33.0009ZM66.1023 33.2731L66.1337 33.2716C66.0915 33.2652 66.081 33.2657 66.0592 33.2499C66.081 33.2657 66.0288 33.2681 66.1023 33.2731ZM60.2938 23.7834C58.9874 24.0212 60.2729 23.7844 59.0087 24.0286C59.446 23.9828 59.901 23.8774 60.2938 23.7834ZM56.372 24.4465C56.2735 24.3672 56.0633 24.3519 55.9965 24.2795C55.9979 24.3046 55.9652 24.2809 55.9248 24.308C56.165 24.2967 56.2435 24.3938 56.372 24.4465ZM54.0137 32.3729C53.9724 32.1902 54.096 32.1508 54.1623 32.0218C53.9979 32.0799 53.8975 32.1601 53.7722 32.166C53.8407 32.2719 53.9347 32.2675 54.0137 32.3729ZM52.6845 60.3898C52.676 60.2307 52.8032 60.0652 53.0584 59.9441C52.9312 60.1096 52.8131 60.2495 52.6115 60.3933C52.6219 60.3928 52.6532 60.3913 52.6845 60.3898ZM46.8344 49.3491C46.4799 48.988 46.6832 49.2639 44.8267 49.2002C45.7715 49.248 46.3695 49.2703 46.8344 49.3491ZM42.8357 49.1679C42.7612 49.1463 42.6927 49.0403 42.6273 48.9931C42.6005 49.0783 42.6645 49.1004 42.6059 49.1787C42.6999 49.1743 42.7417 49.1724 42.8357 49.1679ZM40.7396 48.5446C40.8095 48.4826 40.8114 48.5161 40.8722 48.4796C40.8096 48.4826 40.7364 48.486 40.6738 48.489C40.7069 48.521 40.7382 48.5195 40.7396 48.5446ZM39.1194 59.2906C39.1194 59.2906 39.1507 59.2891 39.1821 59.2876C39.0858 59.2502 39.2193 59.2019 38.9079 59.0571C39.0168 59.1359 39.1884 59.2118 39.1194 59.2906ZM37.3568 27.1295C37.2093 26.9182 37.1027 26.6881 36.8316 26.5162C36.7144 26.8659 36.5205 26.959 36.2948 27.0452C36.6512 27.0536 36.9867 27.063 37.3568 27.1295ZM35.656 59.1346C35.6546 59.1094 35.7291 59.1311 35.7277 59.106C35.7277 59.106 35.6546 59.1094 35.6233 59.1109C35.6233 59.1109 35.6546 59.1094 35.656 59.1346ZM34.0538 64.5742C34.1582 64.5693 34.0751 64.5816 34.1864 64.5092C34.1551 64.5106 34.1551 64.5106 34.1551 64.5106C33.7532 64.6303 34.0829 64.5308 33.1674 64.6411C33.3958 64.6051 33.2037 64.7317 34.0538 64.5742ZM30.2129 54.4882L30.1398 54.4917C30.1411 54.5168 30.1112 54.5434 30.0812 54.57C30.1529 54.5414 30.1516 54.5163 30.2129 54.4882ZM28.7115 33.4043C28.6457 33.3486 28.6057 33.3841 28.5412 33.3535C28.4708 33.4072 28.4654 33.3067 28.256 33.5013C28.4282 33.3924 28.2542 33.4678 28.7115 33.4043ZM26.1991 36.1333C26.1377 36.1613 26.0674 36.215 25.9752 36.2529C26.1736 36.2436 26.3049 36.1535 26.4615 36.1461C26.3662 36.1254 26.2944 36.154 26.1991 36.1333ZM26.6609 46.4622C26.6609 46.4622 26.6922 46.4607 26.7235 46.4592C26.4624 46.4715 26.1895 46.4592 25.7582 46.4207C26.0524 46.4405 26.3267 46.4779 26.6609 46.4622ZM24.7006 39.8051C24.6353 39.7578 24.6966 39.7298 24.6939 39.6795C24.5685 39.6854 24.6398 39.6485 24.7006 39.8051ZM23.6117 50.5008C23.4506 50.2314 23.9896 50.1305 22.9248 50.189C23.1305 50.3136 23.3434 50.3792 23.6117 50.5008ZM22.3643 52.0286C22.3942 52.002 22.4342 51.9666 22.4969 51.9636C22.4329 51.9414 22.3571 51.8946 22.2926 51.8641C22.2971 51.9478 22.3897 51.9183 22.3643 52.0286ZM12.6373 52.9901C12.7417 52.9852 12.7731 52.9837 12.867 52.9793C12.803 52.9571 12.6999 52.9872 12.6359 52.965L12.6373 52.9901Z" fill="#00542C"/>
<path fill-rule="evenodd" clip-rule="evenodd" d="M25.393 66.2831C25.0887 66.2723 24.7949 66.2609 24.5174 66.1648C24.913 66.121 25.2473 66.1052 25.6443 66.0865C25.5221 66.1511 25.4517 66.2048 25.393 66.2831Z" fill="#00542C"/>
<path fill-rule="evenodd" clip-rule="evenodd" d="M214.011 62.8792C221.493 62.4179 233.629 62.6526 211.741 63.3134C209.078 63.4388 205.216 63.0749 214.011 62.8792Z" fill="#00542C"/>
<path fill-rule="evenodd" clip-rule="evenodd" d="M201.111 9.39109C199.602 8.5804 204.583 8.51389 201.111 9.39109V9.39109Z" fill="#00542C"/>
<path fill-rule="evenodd" clip-rule="evenodd" d="M313.323 30.914C314.261 31.0293 315.198 31.1196 315.88 31.5408C315.198 31.1196 313.573 31.8676 313.323 30.914Z" fill="#00542C"/>
<path fill-rule="evenodd" clip-rule="evenodd" d="M109.784 14.8392C110.055 15.3891 110.275 15.2024 108.222 15.5762C108.671 15.1771 108.922 14.7706 109.784 14.8392Z" fill="#00542C"/>
<path fill-rule="evenodd" clip-rule="evenodd" d="M170.331 12.3086C169.51 11.6505 178.727 11.712 173.386 12.2739C172.021 12.3969 173.191 12.3503 170.331 12.3086Z" fill="#00542C"/>
<path fill-rule="evenodd" clip-rule="evenodd" d="M174.482 65.302C175.5 64.9603 175.08 65.1311 179.109 64.7148C178.462 65.5344 179.046 65.104 174.482 65.302Z" fill="#00542C"/>
<path fill-rule="evenodd" clip-rule="evenodd" d="M305.306 59.9424C304.13 60.2664 304.122 60.1157 298.547 60.42C299.865 60.0054 299.473 60.1162 305.306 59.9424Z" fill="#00542C"/>
<path fill-rule="evenodd" clip-rule="evenodd" d="M330.265 28.6223C328.811 28.8419 329.337 28.8759 323.767 28.2902C325.123 28.0081 324.951 28.1253 330.265 28.6223Z" fill="#00542C"/>
<path fill-rule="evenodd" clip-rule="evenodd" d="M316.942 59.8228C316.312 59.9868 315.693 60.1502 314.912 60.4221C315.23 59.5256 316.354 59.9848 316.942 59.8228Z" fill="#00542C"/>
<path fill-rule="evenodd" clip-rule="evenodd" d="M124.237 15.7038C124.329 15.6492 122.91 15.7495 123.849 15.2938C123.71 15.25 125.559 15.3561 124.237 15.7038Z" fill="#00542C"/>
<path fill-rule="evenodd" clip-rule="evenodd" d="M296.521 58.7608C297.062 59.0881 294.159 59.0567 296.521 58.7608V58.7608Z" fill="#00542C"/>
<path fill-rule="evenodd" clip-rule="evenodd" d="M155.789 12.1368C156.439 12.3414 156.808 12.1813 155.747 13.1045C155.421 12.6916 155.437 12.3969 155.789 12.1368Z" fill="#00542C"/>
<path fill-rule="evenodd" clip-rule="evenodd" d="M283.945 61.0569C283.601 61.0815 280.631 60.9861 283.945 61.0569V61.0569Z" fill="#00542C"/>
<path fill-rule="evenodd" clip-rule="evenodd" d="M324.957 33.0863C325.407 33.6697 320.683 32.8843 324.957 33.0863V33.0863Z" fill="#00542C"/>
<path fill-rule="evenodd" clip-rule="evenodd" d="M275.818 61.0111C276.518 60.9782 277.275 60.8586 278.022 61.1173C276.519 61.3895 275.965 61.4155 271.449 61.3511C272.41 61.1128 272.196 61.6097 275.818 61.0111Z" fill="#00542C"/>
<path fill-rule="evenodd" clip-rule="evenodd" d="M327.996 33.9339C328.239 33.9728 328.259 33.552 328.93 33.9655C328.63 34.0384 328.614 34.3163 327.996 33.9339Z" fill="#00542C"/>
<path fill-rule="evenodd" clip-rule="evenodd" d="M240.003 6.20049C240.08 6.27241 240.178 5.76411 240.797 6.16314C240.777 5.98779 240.346 6.93148 240.003 6.20049Z" fill="#00542C"/>
</svg>
