<svg width="601" height="162" viewBox="0 0 601 162" fill="none" xmlns="http://www.w3.org/2000/svg">
<path fill-rule="evenodd" clip-rule="evenodd" d="M381.451 35.86C368.843 40.405 385.692 36.8485 393.812 36.3113C394.645 35.6265 394.685 34.5786 396.671 34.3689C395.327 34.8325 395.68 36.0039 394.085 36.2856C397.498 45.2419 395.02 38.9922 381.451 35.86Z" fill="#00542C"/>
<path fill-rule="evenodd" clip-rule="evenodd" d="M306.427 42.6711C302.19 43.5291 285.922 41.7121 302.206 40.2483C294.14 41.803 338.619 41.1172 306.427 42.6711Z" fill="#00542C"/>
<path fill-rule="evenodd" clip-rule="evenodd" d="M334.527 41.6842C306.509 42.396 361.279 34.2138 347.412 39.6057C347.187 41.1013 340.776 40.7832 334.527 41.6842Z" fill="#00542C"/>
<path fill-rule="evenodd" clip-rule="evenodd" d="M374.989 120.167C383.368 119.346 407.263 119.836 433.667 118.761C420.201 120.221 433.667 118.761 383.548 120.293C385.033 120.65 383.596 120.291 374.989 120.167Z" fill="#00542C"/>
<path fill-rule="evenodd" clip-rule="evenodd" d="M508.232 70.2221C510.976 70.3255 510.277 72.9152 505.957 71.6335C510.197 70.5171 500.016 69.8728 508.232 70.2221Z" fill="#00542C"/>
<path fill-rule="evenodd" clip-rule="evenodd" d="M302.35 123.702C299.227 124.624 302.35 123.702 292.464 124.658C295.108 123.203 292.471 124.477 302.35 123.702Z" fill="#00542C"/>
<path fill-rule="evenodd" clip-rule="evenodd" d="M193.259 47.2612C194.365 47.1576 224.801 43.5039 217.434 46.3688C217.294 45.8718 191.516 50.1971 193.259 47.2612Z" fill="#00542C"/>
<path fill-rule="evenodd" clip-rule="evenodd" d="M334.848 121.85C326.009 122.808 319.347 122.915 303.828 123.632C317.009 122.25 307.459 123.164 334.848 121.85Z" fill="#00542C"/>
<path fill-rule="evenodd" clip-rule="evenodd" d="M373.667 45.3305C374.533 46.4652 367.532 47.1952 373.667 45.3305V45.3305Z" fill="#00542C"/>
<path fill-rule="evenodd" clip-rule="evenodd" d="M360.25 36.6512C360.942 36.9286 360.464 39.1214 358.199 38.3496C357.847 37.5006 359.59 37.5478 360.25 36.6512Z" fill="#00542C"/>
<path fill-rule="evenodd" clip-rule="evenodd" d="M223.949 45.0419C225.489 45.5247 255.659 41.7029 249.481 44.8217C244.557 44.3045 227.895 47.7231 223.949 45.0419Z" fill="#00542C"/>
<path fill-rule="evenodd" clip-rule="evenodd" d="M486.879 116.657C486.766 116.663 486.766 116.663 486.669 116.667C486.764 116.624 486.766 116.663 486.877 116.618C486.879 116.657 486.879 116.657 486.879 116.657Z" fill="#00542C"/>
<path fill-rule="evenodd" clip-rule="evenodd" d="M185.144 50.3162C185.195 50.3536 185.262 50.3901 185.262 50.3901L185.148 50.3954C185.146 50.3558 185.146 50.3558 185.144 50.3162Z" fill="#00542C"/>
<path fill-rule="evenodd" clip-rule="evenodd" d="M512.986 114.86C512.986 114.86 512.938 114.863 512.873 114.866C512.873 114.866 512.92 114.825 512.984 114.822C512.984 114.809 512.984 114.809 512.986 114.86Z" fill="#00542C"/>
<path fill-rule="evenodd" clip-rule="evenodd" d="M474.256 112.241C474.257 112.253 474.257 112.253 474.256 112.241C474.242 112.254 474.242 112.254 474.242 112.254C474.242 112.254 474.242 112.254 474.256 112.241Z" fill="#00542C"/>
<path fill-rule="evenodd" clip-rule="evenodd" d="M29.6707 100.752C29.6707 100.752 29.6707 100.752 29.7189 100.749C37.6328 92.7837 24.5201 83.4574 56.3822 75.1782C56.3018 75.479 55.8617 75.6805 55.8147 76.0056C55.9044 75.2782 56.445 75.4465 56.7482 75.0965C59.8302 74.3057 62.7668 73.5089 66.7358 72.741C66.6876 72.7433 66.6876 72.7433 66.6876 72.7433C64.4537 73.1325 65.133 72.287 59.9011 73.2306C60.3079 74.2058 58.0235 73.6547 56.7482 75.0965C56.6372 75.1275 56.494 75.1601 56.3661 75.179C59.2066 65.1148 80.2775 60.4169 99.7717 59.9385C99.7697 59.8998 99.7215 59.9021 99.7215 59.9021C166.81 48.4024 202.469 50.8177 343.048 47.998C345.035 45.1023 363.442 48.6653 359.937 44.2847C365.218 45.4566 367.342 44.2332 368.918 49.5698C369.012 49.5266 369.017 49.6039 369.127 49.56C373.039 44.1459 389.256 42.3237 402.125 44.7269C405.678 41.3184 417.35 46.0248 426.518 43.4109C392.816 40.542 417.871 35.9536 404.315 33.9572C422.6 34.0393 422.459 38.0104 510.877 54.1362C511.248 54.4416 511.677 54.6281 512.094 54.8925C511.109 56.0495 509.809 54.0445 504.275 55.9578C514.119 56.618 495.739 58.6453 514.454 59.5466C491.9 59.7299 487.078 61.4032 520.066 63.8796C519.885 64.7017 513.775 64.589 509.421 65.078C509.37 65.0416 509.32 65.0053 509.27 64.9689C509.272 65.0075 509.274 65.0462 509.228 65.0871C509.26 65.0856 509.324 65.0825 509.373 65.0803C506.779 65.3702 504.662 65.8314 505.288 66.99C509.362 68.1671 501.319 67.1639 491.386 69.039C519.101 72.8742 484.802 68.1866 517.102 79.1151C515.805 79.5507 516.417 78.9537 511.483 79.457C513.148 81.3545 511.114 80.3784 518.095 81.4057C488.561 81.1815 545.433 84.5226 525.231 85.6283C525.296 87.1233 523.965 86.9277 529.666 87.2275C527.421 88.3146 525.318 88.1295 523.034 88.4824C562.84 99.1221 535.893 96.9941 576.046 106.597C573.785 107.388 564.294 106.092 559.394 109.021C540.436 108.39 515.421 117.005 486.927 116.654C491.659 114.495 481.901 116.633 474.951 113.77C428.319 115.745 417.621 117.786 306.704 122.012C306.948 121.755 307.14 121.423 307.318 121.156C307.27 121.158 307.27 121.158 307.222 121.161C308.104 124.089 279.475 122.105 277.081 124.917C278.563 124.924 277.081 124.917 281.645 125.025C279.706 124.599 282.029 126.182 260.921 125.096C261.315 125.245 260.47 125.389 260.978 126.165C259.85 126.141 258.722 126.142 257.592 126.079L257.7 125.997C252.829 128.253 214.11 125.84 214.649 128.681C174.424 121.316 92.3764 157.422 21.1429 104.795C22.2007 104.099 24.3261 102.295 29.6707 100.752ZM64.8514 68.8523C64.7592 68.9341 64.7236 68.8712 64.7501 69.0637C64.7962 69.0228 64.8605 69.0198 64.9087 69.0175C64.8584 68.9811 64.8556 68.9296 64.8514 68.8523ZM496.062 55.3759C496.08 55.4138 496.163 55.4486 496.111 55.3736C496.06 55.3372 496.06 55.3372 496.057 55.2857C496.06 55.3372 496.06 55.3372 496.062 55.3759ZM538.48 99.8683C538.383 99.8728 538.271 99.8781 538.172 99.844C538.175 99.8827 538.175 99.8827 538.177 99.9213C538.271 99.8781 538.383 99.8728 538.482 99.907C538.48 99.8683 538.48 99.8683 538.48 99.8683ZM544.679 108.513C544.584 108.556 544.47 108.523 544.374 108.527C544.427 108.615 544.268 108.661 544.272 108.738C544.38 108.656 544.587 108.607 544.679 108.513ZM538.109 102.546C538.412 102.493 538.517 102.656 538.774 102.644C538.56 102.563 538.301 102.537 538.104 102.469C538.106 102.507 538.106 102.507 538.109 102.546ZM528.938 92.8534C528.984 92.8124 529.051 92.8481 529.097 92.8071C529.048 92.8094 528.984 92.8124 528.888 92.817C528.887 92.8041 528.935 92.8018 528.938 92.8534ZM518.461 112.136L518.362 112.102C518.252 112.146 518.155 112.15 518.062 112.206C518.157 112.189 518.318 112.181 518.461 112.136ZM514.96 86.8995C515.008 86.8972 515.121 86.8919 515.217 86.8874C515.164 86.7995 515.006 86.8586 514.954 86.7836C514.955 86.8093 514.958 86.8608 514.96 86.8995ZM508.758 87.7725C508.804 87.7316 508.919 87.7649 508.965 87.724C508.852 87.7293 508.756 87.7338 508.708 87.7361C508.755 87.721 508.758 87.7725 508.758 87.7725ZM507.5 77.5654C507.429 77.4525 507.029 77.1873 507.687 77.1434C507.526 77.151 507.386 77.235 507.177 77.2449C507.278 77.3305 507.383 77.4934 507.5 77.5654ZM502.233 97.5969C502.233 97.5969 502.233 97.5969 502.231 97.5582C502.184 97.5992 502.12 97.6022 502.12 97.6022C502.136 97.6014 502.104 97.6029 502.233 97.5969ZM497.071 111.218C497.071 111.218 497.071 111.218 497.069 111.18C497.023 111.221 497.023 111.221 497.026 111.272L497.071 111.218ZM492.115 93.3467C492.067 93.349 492.067 93.349 492.065 93.3103C491.97 93.3535 491.97 93.3535 491.858 93.3588C491.924 93.3944 492.067 93.349 492.115 93.3467ZM492.21 113.952C492.159 113.916 492.092 113.867 492.042 113.831C492.044 113.87 491.998 113.911 491.998 113.911C492.046 113.908 492.145 113.955 492.21 113.952ZM481.989 58.1302C481.955 58.0931 481.889 58.0703 482.082 58.0484C481.919 58.0173 481.774 58.0241 481.614 58.0317C481.776 58.0627 481.874 58.084 481.989 58.1302ZM470.597 54.7278C470.618 54.2231 470.766 53.9837 471.001 53.5594C471.106 53.7095 468.517 53.7926 470.597 54.7278ZM471.095 52.6123C471.209 52.6457 471.308 52.6798 471.361 52.7677C471.407 52.7268 471.404 52.6752 471.468 52.6722C471.262 52.7207 471.253 52.5532 471.095 52.6123ZM478.426 106.22C478.426 106.22 478.424 106.181 478.422 106.143C478.234 106.242 478.388 106.119 477.726 106.382C477.93 106.282 478.118 106.196 478.426 106.22ZM474.213 112.333C474.211 112.294 474.242 112.28 474.257 112.253C474.289 112.252 474.321 112.25 474.371 112.274C474.321 112.237 474.274 112.278 474.272 112.24L474.224 112.242C474.24 112.241 474.241 112.254 474.257 112.253C474.21 112.281 474.096 112.261 474.213 112.333ZM477.098 99.5159C476.023 99.8765 476.477 99.3385 472.54 101.293C473.836 100.535 475.434 100.007 477.098 99.5159ZM470.446 98.6022C470.398 98.6045 470.334 98.6075 470.285 98.6098C470.338 98.6977 470.131 98.7333 470.2 98.8204C470.259 98.7272 470.352 98.6454 470.446 98.6022ZM467.193 59.1107C467.5 59.135 467.712 59.1767 467.957 59.2426C467.696 59.1774 467.39 59.1918 467.187 58.9948C467.189 59.0334 467.191 59.0721 467.193 59.1107ZM465.816 82.8977C465.909 82.8416 466.118 82.8318 466.21 82.75C466.114 82.7545 465.907 82.803 465.809 82.7689C465.811 82.8075 465.813 82.8462 465.816 82.8977ZM463.527 70.8925C463.527 70.8925 463.527 70.8925 463.575 70.8903C463.575 70.8903 463.527 70.8925 463.525 70.8539C463.527 70.8925 463.527 70.8925 463.527 70.8925ZM461.481 49.0358L461.527 48.9949C461.481 49.0358 461.43 48.9994 461.43 48.9994C461.432 49.0381 461.481 49.0358 461.481 49.0358ZM463.246 101.885C463.165 101.876 463.16 101.786 463.155 101.98C463.201 101.939 463.15 101.89 463.246 101.885ZM436.06 43.543C436.11 43.5793 436.159 43.5771 436.225 43.6127L436.273 43.6104C436.159 43.5771 436.159 43.5771 436.06 43.543ZM450.997 41.5744C451.001 41.6517 451.097 41.6472 451.102 41.7374C451.148 41.6965 451.097 41.6472 451.143 41.6063C451.111 41.6078 451.047 41.6108 450.997 41.5744ZM455.963 70.0992C455.915 70.1015 455.915 70.1015 455.915 70.1015C455.903 70.1795 455.646 70.2045 455.631 70.5152C455.524 70.3265 455.711 70.2015 455.963 70.0992ZM456.065 110.888C455.533 110.591 454.872 110.57 454.197 110.602C456.003 110.646 455.477 111.032 456.065 110.888ZM450.338 41.6054L450.381 41.513C450.317 41.516 450.319 41.5418 450.281 41.4403C450.516 41.6229 450.497 41.5721 450.338 41.6054ZM450.621 55.5388C450.717 55.5342 450.83 55.5289 450.926 55.5244C450.766 55.532 450.715 55.4956 450.617 55.4615C450.619 55.5001 450.619 55.5001 450.621 55.5388ZM450.185 45.3447C449.976 45.3545 449.781 45.3249 449.575 45.3734C449.689 45.4068 449.882 45.3977 449.982 45.4704C450.029 45.4295 450.075 45.3886 450.185 45.3447ZM450.818 72.3559C450.928 72.312 451.024 72.3074 451.024 72.3074C450.974 72.271 450.928 72.312 450.814 72.2786C450.816 72.3172 450.816 72.3172 450.818 72.3559ZM444.886 72.5576C444.886 72.5576 444.837 72.5599 444.835 72.5212C444.789 72.5621 444.725 72.5652 444.677 72.5674C444.741 72.5644 444.786 72.5106 444.886 72.5576ZM442.924 110.022C442.922 109.983 442.872 109.947 442.92 109.944C442.92 109.944 442.92 109.944 442.872 109.947C442.92 109.944 442.922 109.983 442.924 110.022ZM441.998 78.7628C441.535 78.8234 441.042 78.937 440.628 79.034C440.716 78.8749 441.585 79.7637 441.998 78.7628ZM437.583 49.1016C436.973 49.4402 437.568 49.1152 436.215 50.3153C436.714 50.0077 437.096 49.6153 437.583 49.1016ZM436.963 71.6908C436.961 71.6521 437.009 71.6498 437.009 71.6498C436.961 71.6521 436.913 71.6544 436.865 71.6566C436.867 71.6953 436.961 71.6521 436.963 71.6908ZM438.366 104.335C438.414 104.332 438.414 104.332 438.527 104.327C438.382 104.321 438.495 104.342 438.392 104.217L438.408 104.217C438.355 104.129 438.397 104.01 438.441 103.931C438.365 104.012 438.386 104.101 438.376 104.218L438.344 104.22C438.395 104.269 438.376 104.218 438.366 104.335ZM433.113 59.1134C433.015 59.0792 432.903 59.0845 432.803 59.0376C432.805 59.0762 432.76 59.13 432.713 59.158C432.907 59.1618 432.902 59.0845 433.113 59.1134ZM430.038 47.765C430.118 47.7484 429.992 47.8059 430.153 47.7984C429.973 47.7423 430.057 47.8029 429.835 47.568C429.839 47.6582 429.841 47.6968 429.797 47.7764C429.846 47.7741 429.942 47.7696 430.038 47.765ZM423.912 67.1008C423.816 67.1054 423.655 67.1129 423.511 67.1197C423.403 67.2152 423.409 67.3311 423.317 67.4129C423.638 67.3978 423.386 67.5001 423.912 67.1008ZM421.802 58.1219C421.802 58.1219 421.8 58.0833 421.848 58.081C421.8 58.0833 421.8 58.0833 421.752 58.0855C421.802 58.1219 421.8 58.0833 421.802 58.1219ZM413.354 76.2111C413.24 76.1777 413.242 76.2164 413.143 76.1823C413.143 76.1823 413.033 76.2262 412.937 76.2307C413.097 76.2232 413.21 76.2179 413.354 76.2111ZM412.716 106.239C412.762 106.198 412.807 106.145 412.87 106.116C412.822 106.118 412.822 106.118 412.71 106.123C412.775 106.146 412.711 106.149 412.716 106.239ZM401.968 96.5693C401.648 96.3003 401.588 96.0964 401.575 95.8517C400.934 96.2047 400.337 96.4782 399.582 96.8107C400.334 96.7237 401.245 96.6033 401.968 96.5693ZM390.886 82.7697C390.884 82.7311 390.932 82.7288 390.996 82.7258C390.946 82.6894 390.996 82.7258 390.875 82.5636C390.877 82.6023 390.881 82.6796 390.886 82.7697ZM390.778 82.5682C390.826 82.5659 390.826 82.5659 390.872 82.525C390.872 82.525 390.824 82.5273 390.774 82.4909C390.811 82.5796 390.824 82.5144 390.778 82.5682ZM380.628 78.6165C380.581 78.6317 380.493 78.5067 380.321 78.5923C380.415 78.5362 380.532 78.6211 380.628 78.6165ZM362.659 83.1943C362.563 83.1988 362.501 83.2405 362.45 83.2041C362.455 83.2943 362.246 83.3041 362.363 83.3761C362.457 83.32 362.567 83.2761 362.659 83.1943ZM362.182 106.642C362.18 106.603 362.23 106.64 362.228 106.601C362.182 106.642 362.067 106.609 361.973 106.652C362.07 106.647 362.134 106.644 362.182 106.642ZM360.705 113.607C360.701 113.53 360.604 113.535 360.648 113.442C360.599 113.444 360.503 113.449 360.439 113.452C360.505 113.488 360.652 113.532 360.705 113.607ZM359.689 104.009C359.687 103.97 359.735 103.968 359.732 103.916C359.638 103.959 359.523 103.926 359.432 104.021C359.528 104.016 359.576 104.014 359.689 104.009ZM349.165 68.2814C349.163 68.2428 349.163 68.2428 349.161 68.2041C349.115 68.2451 349.163 68.2428 349.117 68.2837C349.165 68.2814 349.165 68.2814 349.165 68.2814ZM343.647 51.3403L343.645 51.3016C343.645 51.3016 343.647 51.3403 343.537 51.3842C343.647 51.3403 343.649 51.3789 343.647 51.3403ZM343.315 83.162C343.313 83.1234 343.31 83.0847 343.31 83.0847C343.216 83.1279 343.102 83.0946 343.005 83.0991C343.104 83.1332 343.216 83.1279 343.315 83.162ZM333.808 60.6362C333.854 60.5953 334.014 60.5878 334.012 60.5362C333.805 60.5847 333.801 60.5074 333.658 60.5529C333.709 60.5893 333.805 60.5847 333.808 60.6362ZM333.45 57.8896C333.703 57.8002 333.509 57.7835 334.05 57.6547C334.05 57.6547 334.05 57.6547 334.096 57.6138C333.826 57.6782 333.815 57.782 333.29 57.8971C333.354 57.8941 333.354 57.8941 333.45 57.8896ZM323.034 107.632C323.239 107.545 323.239 107.545 323.425 107.407C323.169 107.445 322.616 107.342 323.034 107.632ZM318.355 55.1134C318.353 55.0747 318.305 55.077 318.303 55.0383C318.254 55.0406 318.142 55.0459 318.142 55.0459C318.206 55.0429 318.257 55.0792 318.355 55.1134ZM305.811 85.3791C305.763 85.3813 305.763 85.3813 305.651 85.3866C305.993 85.4609 305.687 86.6634 305.811 85.3791ZM294.689 52.5856C294.691 52.6242 294.691 52.6242 294.645 52.678C294.693 52.6757 294.742 52.6735 294.806 52.6705C294.739 52.622 294.739 52.622 294.689 52.5856ZM299.487 102.826C299.487 102.826 299.485 102.787 299.533 102.785C299.437 102.79 299.324 102.795 299.228 102.799C299.326 102.833 299.437 102.79 299.487 102.826ZM298.87 114.103C298.87 114.103 298.822 114.105 298.82 114.066C298.011 114.311 297.19 114.311 296.393 114.465C297.192 114.35 298.006 114.221 298.87 114.103ZM281.687 107.848C281.585 107.762 281.682 107.758 281.678 107.68C281.632 107.721 281.585 107.762 281.526 107.855C281.59 107.852 281.59 107.852 281.687 107.848ZM279.531 75.2907C279.736 75.2036 279.734 75.165 279.924 75.1044C279.715 75.1142 279.52 75.0846 279.263 75.0967C279.316 75.1718 279.525 75.1619 279.531 75.2907ZM276.964 113.158C276.966 113.197 276.871 113.24 276.81 113.294C276.68 113.275 278.092 113.182 276.964 113.158ZM261.803 98.698C261.851 98.6958 261.851 98.6958 261.851 98.6958C261.944 98.6268 261.867 98.6821 262.152 98.5912C262.085 98.5556 261.958 98.5874 261.803 98.698ZM274.214 88.7128C274.194 88.3393 274.284 88.2188 274.388 88.0461C274.2 88.1453 274.21 88.0415 273.911 88.7658C274.008 88.7613 274.216 88.7515 274.214 88.7128ZM272.537 118.286C272.436 118.214 272.321 118.167 272.221 118.095C272.228 118.223 272.228 118.223 272.186 118.342C272.216 118.301 272.424 118.292 272.537 118.286ZM271.388 116.984C271.337 116.948 271.335 116.909 271.384 116.907C271.304 116.924 271.333 116.871 271.34 116.987C271.34 116.987 271.34 116.987 271.388 116.984ZM263.906 83.6193C264.001 83.5761 264.21 83.5663 264.304 83.5231C264.095 83.5329 263.902 83.542 263.693 83.5518C263.757 83.5359 263.807 83.5723 263.906 83.6193ZM262.7 100.993C261.977 101.027 261.329 101.264 260.622 101.298C260.45 101.086 263.053 101.88 262.7 100.993ZM261.986 118.253C261.886 118.194 261.565 118.519 261.156 118.086C261.066 118.219 260.859 118.268 260.653 118.316C260.897 118.369 260.94 118.264 261.986 118.253ZM252.443 60.6433C252.332 60.6872 252.335 60.7387 252.287 60.741C252.447 60.7334 252.5 60.8084 252.644 60.8016C252.637 60.6728 252.447 60.7205 252.443 60.6433ZM254.786 89.214C254.375 89.0654 254.07 89.0798 253.545 88.8979C253.6 89.0244 253.439 89.032 253.445 89.1479C253.761 89.0169 254.382 89.1942 254.786 89.214ZM250.599 55.1126C250.488 55.1566 250.392 55.1611 250.296 55.1656C250.509 55.2331 250.915 55.3044 251.034 55.415C250.977 55.2498 251.148 55.1385 250.599 55.1126ZM252.775 110.81C252.775 110.81 252.872 110.805 252.984 110.8C252.87 110.766 252.82 110.73 252.769 110.681C252.771 110.732 252.838 110.768 252.775 110.81ZM250.967 75.1113C251.075 75.0288 251.222 75.0606 251.361 74.9636C251.056 74.978 250.96 74.9825 250.751 74.9924C250.85 75.0393 250.914 75.0363 250.967 75.1113ZM251.832 125.588C251.781 125.552 251.621 125.56 251.618 125.508L251.522 125.513C251.587 125.535 251.559 125.601 251.832 125.588ZM221.969 62.1162C221.921 62.1185 221.859 62.1601 221.813 62.201C222.022 62.1912 222.12 62.2253 222.217 62.2208C222.116 62.148 222.068 62.1503 221.969 62.1162ZM224.497 72.2635L224.499 72.3022L224.593 72.259C224.561 72.2605 224.497 72.2635 224.497 72.2635ZM242.973 107.332C243.07 107.328 243.07 107.328 243.068 107.289C243.021 107.33 242.973 107.332 242.861 107.338C242.877 107.337 242.975 107.371 242.973 107.332ZM230.317 64.306C230.221 64.3106 230.219 64.2719 230.219 64.2719C230.221 64.3106 230.173 64.3128 230.173 64.3128C230.221 64.3106 230.221 64.3106 230.317 64.306ZM229.879 78.8932C229.966 78.7212 230.076 78.6772 230.164 78.5053C229.955 78.5151 229.652 78.5681 229.553 78.534C229.659 78.6969 229.774 78.7431 229.879 78.8932ZM229.112 103.555C229.158 103.514 229.271 103.509 229.316 103.455C229.158 103.502 229.061 103.506 228.965 103.511C228.95 103.524 229.046 103.52 229.112 103.555ZM224.544 52.1937C224.656 52.1884 224.748 52.1065 224.845 52.102C224.746 52.0679 224.636 52.1118 224.538 52.0777C224.539 52.1035 224.541 52.1421 224.544 52.1937ZM225.917 79.4929C224.795 79.0033 225.927 79.3891 222.556 78.9925C223.637 79.032 224.676 79.1768 225.917 79.4929ZM220.542 72.695C220.299 72.6677 220.371 72.5223 219.404 72.5032C219.204 72.6805 219.007 72.5994 218.803 72.6994C219.364 72.6601 219.927 72.6336 220.542 72.695ZM211.105 91.2698C211.055 91.2334 211.055 91.2334 210.991 91.2364C210.995 91.3137 210.993 91.2751 210.95 91.3675C210.995 91.3137 210.993 91.2751 211.105 91.2698ZM202.397 115.893C202.57 115.807 202.478 115.902 202.472 115.489C202.424 115.491 202.375 115.493 202.375 115.493C202.478 115.605 202.597 115.715 202.397 115.893ZM199.692 75.2259C200.083 75.0009 200.494 74.8653 200.913 75.1685C200.505 75.0586 200.136 74.7918 199.688 75.1486C199.688 75.1486 199.69 75.1873 199.692 75.2259ZM197.47 65.3612C197.42 65.3249 197.418 65.2862 197.415 65.2347C197.417 65.2733 197.419 65.312 197.31 65.3688C197.422 65.3635 197.422 65.3635 197.47 65.3612ZM197.443 100.165C197.554 100.121 197.747 100.112 197.955 100.102C197.857 100.068 197.696 100.075 197.6 100.08C197.756 99.982 197.903 100.027 198.043 99.9426C197.585 100.106 197.997 99.9835 197.13 100.024C197.244 100.045 197.345 100.13 197.443 100.165ZM192.204 118.619C192.094 118.663 191.949 118.67 191.853 118.675C192.004 118.5 191.688 118.605 191.742 118.718C191.904 118.724 191.998 118.681 192.204 118.619ZM182.208 56.4848L182.256 56.4825C182.129 56.5143 180.93 56.0929 182.208 56.4848ZM180.199 55.3784C180.197 55.3397 180.247 55.3761 180.245 55.3375C180.197 55.3397 180.197 55.3397 180.195 55.3011C180.197 55.3397 180.197 55.3397 180.199 55.3784ZM182.983 123.25C183.144 123.243 183.337 123.234 183.497 123.226C183.378 123.102 183.137 123.114 182.926 123.085C182.928 123.124 183.026 123.158 182.983 123.25ZM182.454 114.326C182.452 114.287 182.45 114.236 182.447 114.197C182.399 114.199 182.351 114.202 182.285 114.166C182.338 114.254 182.402 114.251 182.454 114.326ZM181.01 110.533C181.12 110.489 181.118 110.437 181.214 110.433C181.118 110.437 181.118 110.437 181.003 110.404C181.006 110.455 181.008 110.494 181.01 110.533ZM166.748 61.306C166.704 61.3856 166.757 61.4735 166.713 61.553C166.713 61.553 166.809 61.5485 166.874 61.5454C166.805 61.4712 166.801 61.3939 166.748 61.306ZM176.786 81.4307C176.373 81.2435 177.004 81.2913 176.637 80.4563C176.529 80.5389 176.598 80.626 176.49 80.7086C176.896 80.7798 176.71 80.6078 176.786 81.4307ZM166.802 53.6328C166.915 53.6275 166.915 53.6275 166.963 53.6252C166.912 53.5889 166.8 53.5942 166.752 53.5964C166.8 53.5942 166.802 53.6328 166.802 53.6328ZM167.271 73.7171C167.382 73.6732 167.526 73.6664 167.62 73.6103C167.409 73.5815 167.152 73.5936 166.959 73.6027C167.058 73.6497 167.155 73.6451 167.271 73.7171ZM160.198 52.7168C160.246 52.7146 160.31 52.7116 160.308 52.6729C160.198 52.7168 160.101 52.7214 160.007 52.7646C160.103 52.76 160.15 52.7191 160.198 52.7168ZM159.606 57.8714C159.555 57.835 159.555 57.835 159.555 57.835C159.507 57.8373 159.459 57.8396 159.459 57.8396C159.555 57.835 159.557 57.8737 159.606 57.8714ZM156.14 72.4719C156.023 72.3999 155.927 72.4044 155.922 72.3143C155.813 72.3968 155.767 72.4378 155.723 72.5173C155.836 72.5249 155.995 72.4787 156.14 72.4719ZM140.225 55.3744C140.179 55.4153 140.179 55.4153 140.179 55.4153C140.179 55.4153 140.179 55.4153 140.227 55.413C140.227 55.413 140.227 55.413 140.225 55.3744ZM148.363 70.4231C148.246 70.3382 148.406 70.3306 148.354 70.2556C148.244 70.2995 148.249 70.3897 148.154 70.4329C148.251 70.4283 148.249 70.3897 148.363 70.4231ZM142.951 91.6494C142.951 91.6494 142.951 91.6494 142.949 91.6108L142.838 91.6547L142.951 91.6494ZM142.427 76.2423C142.537 76.1855 141.957 76.187 142.258 76.0824C141.65 76.1627 142.227 76.1097 140.78 76.152C141.393 76.1748 141.948 76.0195 142.427 76.2423ZM138.151 117.677C138.197 117.636 138.145 117.561 138.19 117.507C138.098 117.589 138.05 117.591 137.99 117.684C138.055 117.681 138.103 117.679 138.151 117.677ZM131.57 93.2569C131.57 93.2569 131.522 93.2591 131.52 93.2205C131.522 93.2591 131.474 93.2614 131.474 93.2614C131.474 93.2614 131.522 93.2591 131.57 93.2569ZM129.886 122.714C129.884 122.676 129.884 122.676 129.884 122.676C129.638 122.597 128.707 122.654 129.886 122.714ZM129.304 122.367C129.35 122.326 129.35 122.326 129.395 122.273C129.347 122.275 129.347 122.275 129.299 122.277C129.302 122.329 129.302 122.329 129.304 122.367ZM125.633 62.8408C125.633 62.8408 125.835 62.715 126.025 62.6544C124.606 62.9278 123.166 62.789 121.734 62.8177C123.062 62.6647 124.341 62.4883 125.633 62.8408ZM122.112 75.2227C122.063 75.225 122.013 75.1886 122.013 75.1886C122.015 75.2272 122.015 75.2272 121.967 75.2295C121.999 75.228 121.999 75.228 122.112 75.2227ZM118.704 75.6414L118.752 75.6391C118.687 75.6292 118.671 75.63 118.637 75.6058C118.671 75.63 118.591 75.6338 118.704 75.6414ZM109.768 61.0434C107.759 61.4092 109.736 61.045 107.792 61.4206C108.464 61.3502 109.164 61.1881 109.768 61.0434ZM103.735 62.0635C103.584 61.9414 103.26 61.9179 103.158 61.8065C103.16 61.8452 103.11 61.8088 103.047 61.8505C103.417 61.8331 103.538 61.9824 103.735 62.0635ZM100.108 74.2567C100.044 73.9756 100.234 73.915 100.336 73.7165C100.083 73.8059 99.929 73.9294 99.7362 73.9384C99.8416 74.1014 99.9862 74.0946 100.108 74.2567ZM98.063 117.355C98.0498 117.11 98.2455 116.856 98.6381 116.669C98.4424 116.924 98.2608 117.139 97.9506 117.36C97.9667 117.36 98.0148 117.357 98.063 117.355ZM89.0638 100.371C88.5185 99.8157 88.8312 100.24 85.9752 100.142C87.4287 100.216 88.3486 100.25 89.0638 100.371ZM82.9125 100.092C82.798 100.059 82.6926 99.8962 82.592 99.8235C82.5508 99.9545 82.6493 99.9886 82.5591 100.109C82.7037 100.102 82.7679 100.099 82.9125 100.092ZM79.6881 99.1337C79.7957 99.0382 79.7985 99.0897 79.8921 99.0337C79.7957 99.0382 79.6832 99.0435 79.5869 99.048C79.6378 99.0973 79.686 99.095 79.6881 99.1337ZM77.1957 115.664C77.1957 115.664 77.2439 115.662 77.2921 115.66C77.1441 115.602 77.3495 115.528 76.8704 115.305C77.038 115.426 77.302 115.543 77.1957 115.664ZM74.4843 66.1907C74.2574 65.8657 74.0934 65.5118 73.6765 65.2473C73.4961 65.7853 73.1979 65.9284 72.8507 66.061C73.399 66.0739 73.9151 66.0884 74.4843 66.1907ZM71.868 115.424C71.8659 115.385 71.9805 115.419 71.9784 115.38C71.9784 115.38 71.8659 115.385 71.8177 115.388C71.8177 115.388 71.8659 115.385 71.868 115.424ZM69.4033 123.792C69.564 123.784 69.4362 123.803 69.6073 123.692C69.5592 123.694 69.5592 123.694 69.5592 123.694C68.9409 123.878 69.4481 123.725 68.0399 123.895C68.3912 123.84 68.0957 124.034 69.4033 123.792ZM63.4949 108.277L63.3825 108.282C63.3845 108.321 63.3384 108.362 63.2923 108.402C63.4026 108.359 63.4006 108.32 63.4949 108.277ZM61.1853 75.8432C61.0841 75.7576 61.0226 75.8121 60.9234 75.7652C60.8151 75.8477 60.8068 75.6932 60.4847 75.9924C60.7494 75.825 60.4819 75.9409 61.1853 75.8432ZM57.3204 80.0412C57.2261 80.0844 57.1178 80.167 56.976 80.2253C57.2812 80.211 57.4832 80.0723 57.7241 80.061C57.5775 80.0291 57.4671 80.0731 57.3204 80.0412ZM58.0308 95.9302C58.0308 95.9302 58.079 95.928 58.1272 95.9257C57.7256 95.9446 57.3057 95.9256 56.6422 95.8664C57.0948 95.8968 57.5167 95.9544 58.0308 95.9302ZM55.0154 85.6896C54.9148 85.6169 55.0091 85.5737 55.005 85.4964C54.8122 85.5055 54.9219 85.4487 55.0154 85.6896ZM53.3403 102.143C53.0925 101.728 53.9216 101.573 52.2837 101.663C52.6 101.855 52.9275 101.956 53.3403 102.143ZM51.4213 104.493C51.4674 104.452 51.529 104.398 51.6254 104.393C51.5269 104.359 51.4103 104.287 51.3111 104.24C51.318 104.369 51.4605 104.323 51.4213 104.493ZM36.4583 105.972C36.619 105.965 36.6672 105.962 36.8117 105.955C36.7133 105.921 36.5547 105.968 36.4562 105.933L36.4583 105.972Z" fill="#00542C"/>
<path fill-rule="evenodd" clip-rule="evenodd" d="M56.0804 126.421C55.6123 126.404 55.1603 126.387 54.7334 126.239C55.342 126.171 55.8562 126.147 56.4669 126.119C56.2789 126.218 56.1706 126.3 56.0804 126.421Z" fill="#00542C"/>
<path fill-rule="evenodd" clip-rule="evenodd" d="M346.231 121.185C357.741 120.475 376.41 120.836 342.74 121.853C338.643 122.045 332.703 121.486 346.231 121.185Z" fill="#00542C"/>
<path fill-rule="evenodd" clip-rule="evenodd" d="M326.388 38.9038C324.065 37.6567 331.729 37.5544 326.388 38.9038V38.9038Z" fill="#00542C"/>
<path fill-rule="evenodd" clip-rule="evenodd" d="M499.003 72.0124C500.446 72.1899 501.887 72.3287 502.937 72.9766C501.887 72.3287 499.388 73.4794 499.003 72.0124Z" fill="#00542C"/>
<path fill-rule="evenodd" clip-rule="evenodd" d="M185.9 47.2847C186.316 48.1307 186.655 47.8434 183.496 48.4184C184.188 47.8045 184.573 47.1792 185.9 47.2847Z" fill="#00542C"/>
<path fill-rule="evenodd" clip-rule="evenodd" d="M279.038 43.3919C277.776 42.3795 291.954 42.4741 283.738 43.3385C281.639 43.5278 283.439 43.456 279.038 43.3919Z" fill="#00542C"/>
<path fill-rule="evenodd" clip-rule="evenodd" d="M285.424 124.912C286.99 124.386 286.344 124.649 292.542 124.008C291.547 125.269 292.445 124.607 285.424 124.912Z" fill="#00542C"/>
<path fill-rule="evenodd" clip-rule="evenodd" d="M486.67 116.667C484.861 117.165 484.849 116.933 476.274 117.401C478.301 116.764 477.698 116.934 486.67 116.667Z" fill="#00542C"/>
<path fill-rule="evenodd" clip-rule="evenodd" d="M525.066 68.4872C522.829 68.8249 523.637 68.8773 515.069 67.9763C517.155 67.5423 516.891 67.7226 525.066 68.4872Z" fill="#00542C"/>
<path fill-rule="evenodd" clip-rule="evenodd" d="M504.57 116.483C503.601 116.735 502.648 116.987 501.447 117.405C501.936 116.026 503.665 116.732 504.57 116.483Z" fill="#00542C"/>
<path fill-rule="evenodd" clip-rule="evenodd" d="M208.132 48.6147C208.273 48.5306 206.09 48.685 207.535 47.984C207.322 47.9165 210.166 48.0798 208.132 48.6147Z" fill="#00542C"/>
<path fill-rule="evenodd" clip-rule="evenodd" d="M473.157 114.849C473.989 115.353 469.524 115.304 473.157 114.849V114.849Z" fill="#00542C"/>
<path fill-rule="evenodd" clip-rule="evenodd" d="M256.669 43.1275C257.669 43.4422 258.236 43.1959 256.604 44.6162C256.103 43.9809 256.127 43.5277 256.669 43.1275Z" fill="#00542C"/>
<path fill-rule="evenodd" clip-rule="evenodd" d="M453.811 118.381C453.281 118.419 448.714 118.272 453.811 118.381V118.381Z" fill="#00542C"/>
<path fill-rule="evenodd" clip-rule="evenodd" d="M516.899 75.3542C517.592 76.2517 510.325 75.0435 516.899 75.3542V75.3542Z" fill="#00542C"/>
<path fill-rule="evenodd" clip-rule="evenodd" d="M441.309 118.311C442.385 118.26 443.551 118.076 444.7 118.474C442.387 118.893 441.536 118.933 434.589 118.834C436.067 118.467 435.738 119.232 441.309 118.311Z" fill="#00542C"/>
<path fill-rule="evenodd" clip-rule="evenodd" d="M521.575 76.658C521.949 76.7179 521.979 76.0706 523.012 76.7066C522.551 76.8187 522.525 77.2462 521.575 76.658Z" fill="#00542C"/>
<path fill-rule="evenodd" clip-rule="evenodd" d="M386.215 33.9959C386.333 34.1065 386.485 33.3246 387.436 33.9384C387.405 33.6686 386.742 35.1203 386.215 33.9959Z" fill="#00542C"/>
</svg>
