<svg width="505" height="340" viewBox="0 0 505 340" fill="none" xmlns="http://www.w3.org/2000/svg">
<g clip-path="url(#clip0_419_147)">
<path d="M445 119.145C440.742 119.145 436.568 119.607 432.562 120.447C426.448 80.9984 392.337 50.792 351.059 50.792C337.187 50.792 324.116 54.237 312.647 60.2867C293.42 24.4087 255.515 0 211.875 0C150.273 0 100.182 48.6494 97.9051 109.482C90.9059 107.34 83.4428 106.163 75.7268 106.163C33.9 106.163 0 139.983 0 181.658C0 223.334 33.9 257.111 75.7268 257.111C76.4014 257.111 77.0761 257.027 77.7507 257.027C87.2376 304.332 129.107 340 179.408 340C219.507 340 254.208 317.314 271.453 284.125C287.138 295.846 306.533 302.904 327.658 302.904C371.466 302.904 408.107 272.949 418.395 232.492C426.406 236.441 435.429 238.752 444.958 238.752C478.099 238.752 504.958 211.991 504.958 178.969C505 145.948 478.141 119.145 445 119.145Z" fill="url(#paint0_linear_419_147)"/>
<path d="M473.335 198.967V139.016H489.568C488.851 138.218 488.134 137.378 487.375 136.622H473.377V126.287C472.576 125.867 471.775 125.531 470.974 125.111V136.622H410.721V76.6292H410.974C410.131 75.7049 409.203 74.8647 408.318 73.9825V74.2345H348.107V51.0021C347.306 51.0441 346.505 51.0861 345.704 51.1702V74.2765H285.536V26.9294C284.735 26.2573 283.933 25.5851 283.132 24.9129V74.2345H222.922V14.2419H267.11C265.592 13.4017 264.074 12.6035 262.514 11.8473H222.922V0.58816C222.121 0.504137 221.32 0.378102 220.518 0.33609V11.8473H161.404C159.802 12.6035 158.242 13.4017 156.724 14.2419H157.863V74.2345H105.031C104.736 75.0327 104.356 75.831 104.061 76.6292H157.905V136.622H97.6943V109.44C96.8932 109.188 96.0921 109.02 95.291 108.81V136.622H35.0806V118.053C34.2794 118.557 33.4362 119.061 32.6772 119.607V136.58H15.0526C14.4623 137.378 13.8298 138.176 13.2395 138.974H32.635V198.967H2.1082C2.31902 199.765 2.52984 200.563 2.74066 201.362H32.6772V243.667C33.4783 244.214 34.2794 244.718 35.0806 245.222V201.404H95.291V261.396H78.847C79.0578 262.195 79.2264 262.993 79.4372 263.791H95.2488V296.98C96.0078 298.03 96.851 299.039 97.6522 300.047V263.749H157.863V323.742H123.794C125.059 324.54 126.282 325.38 127.589 326.136H157.863V337.647C158.664 337.815 159.465 338.025 160.266 338.194V326.178H220.476V331.514C221.277 331.178 222.079 330.799 222.88 330.421V326.178H231.06C232.409 325.38 233.758 324.624 235.065 323.784H222.88V263.791H283.09V291.561C283.891 291.981 284.692 292.401 285.493 292.821V263.833H345.704V301.139C346.505 300.971 347.306 300.803 348.107 300.635V263.833H403.722C404.312 263.035 404.902 262.237 405.45 261.438H348.107V201.404H408.318V256.775C409.161 255.347 409.962 253.918 410.721 252.448V201.404H470.931V232.828C471.732 232.45 472.576 232.072 473.335 231.652V201.404H500.573C500.91 200.605 501.163 199.807 501.458 199.009H473.335V198.967ZM95.2488 198.967H35.0806V139.016H95.291V198.967H95.2488ZM157.863 261.354H97.6943V201.404H157.905V261.354H157.863ZM157.863 198.967H97.6943V139.016H157.905V198.967H157.863ZM220.476 323.742H160.308V263.791H220.518V323.742H220.476ZM220.476 261.354H160.308V201.404H220.518V261.354H220.476ZM220.476 198.967H160.308V139.016H220.518V198.967H220.476ZM220.476 136.622H160.308V76.6292H220.518V136.622H220.476ZM220.476 74.2345H160.308V14.2419H220.518V74.2345H220.476ZM283.09 261.354H222.922V201.404H283.132V261.354H283.09ZM283.09 198.967H222.922V139.016H283.132V198.967H283.09ZM283.09 136.622H222.922V76.6292H283.132V136.622H283.09ZM345.704 261.354H285.536V201.404H345.746V261.354H345.704ZM345.704 198.967H285.536V139.016H345.746V198.967H345.704ZM345.704 136.622H285.536V76.6292H345.746V136.622H345.704ZM408.318 198.967H348.107V139.016H408.318V198.967ZM408.318 136.622H348.107V76.6292H408.318V136.622ZM470.931 198.967H410.721V139.016H470.931V198.967Z" fill="url(#paint1_linear_419_147)"/>
</g>
<defs>
<linearGradient id="paint0_linear_419_147" x1="221.134" y1="-14.4209" x2="294.026" y2="442.809" gradientUnits="userSpaceOnUse">
<stop offset="0.00537603" stop-color="#FFFEFF"/>
<stop offset="0.5684" stop-color="#F8F6F6"/>
<stop offset="0.9462" stop-color="#F0EEED"/>
</linearGradient>
<linearGradient id="paint1_linear_419_147" x1="319.242" y1="395.346" x2="185.539" y2="-19.418" gradientUnits="userSpaceOnUse">
<stop offset="0.00047407" stop-color="#14C3D8"/>
<stop offset="0.6457" stop-color="#85E5F3"/>
<stop offset="0.9462" stop-color="#B5F3FF"/>
</linearGradient>
<clipPath id="clip0_419_147">
<rect width="505" height="340" fill="white"/>
</clipPath>
</defs>
</svg>
