<svg width="401" height="270" viewBox="0 0 401 270" fill="none" xmlns="http://www.w3.org/2000/svg">
<g clip-path="url(#clip0_419_143)">
<path d="M353.357 94.6151C349.975 94.6151 346.661 94.9821 343.48 95.6493C338.625 64.3223 311.539 40.3349 278.761 40.3349C267.746 40.3349 257.367 43.0706 248.26 47.8747C232.993 19.3834 202.894 0 168.241 0C119.326 0 79.5505 38.6334 77.7425 86.9418C72.1847 85.2403 66.2586 84.3062 60.1316 84.3062C26.9186 84.3062 0 111.163 0 144.258C0 177.353 26.9186 204.176 60.1316 204.176C60.6673 204.176 61.203 204.11 61.7387 204.11C69.2719 241.676 102.518 270 142.461 270C174.301 270 201.856 251.984 215.55 225.628C228.005 234.936 243.406 240.541 260.18 240.541C294.966 240.541 324.061 216.754 332.23 184.626C338.592 187.762 345.757 189.597 353.323 189.597C379.639 189.597 400.967 168.345 400.967 142.123C401 115.9 379.673 94.6151 353.357 94.6151Z" fill="url(#paint0_linear_419_143)"/>
<path d="M375.856 158.003V110.395H388.746C388.177 109.762 387.608 109.094 387.005 108.494H375.889V100.287C375.253 99.9531 374.617 99.6862 373.981 99.3525V108.494H326.137V60.8526H326.338C325.668 60.1186 324.932 59.4514 324.228 58.7508V58.951H276.418V40.5017C275.782 40.535 275.146 40.5684 274.509 40.6351V58.9843H226.732V21.3852C226.096 20.8514 225.46 20.3176 224.824 19.7838V58.951H177.013V11.3098H212.101C210.896 10.6425 209.69 10.0087 208.452 9.40814H177.013V0.46708C176.377 0.400355 175.741 0.300269 175.105 0.266907V9.40814H128.165C126.892 10.0087 125.654 10.6425 124.448 11.3098H125.352V58.951H83.4008C83.1664 59.5848 82.8651 60.2187 82.6307 60.8526H125.386V108.494H77.5751V86.9084C76.939 86.7083 76.3028 86.5748 75.6667 86.408V108.494H27.8561V93.7477C27.2199 94.148 26.5503 94.5484 25.9477 94.9821V108.46H11.9527C11.4839 109.094 10.9817 109.728 10.513 110.362H25.9142V158.003H1.67404C1.84145 158.637 2.00885 159.271 2.17625 159.905H25.9477V193.501C26.5838 193.934 27.2199 194.335 27.8561 194.735V159.938H75.6667V207.579H62.6092C62.7766 208.213 62.9105 208.847 63.0779 209.481H75.6332V235.837C76.2359 236.671 76.9055 237.472 77.5416 238.273V209.448H125.352V257.089H98.2997C99.3042 257.723 100.275 258.39 101.313 258.99H125.352V268.132C125.988 268.265 126.625 268.432 127.261 268.565V259.024H175.071V263.261C175.707 262.994 176.344 262.694 176.98 262.393V259.024H183.475C184.546 258.39 185.618 257.789 186.656 257.122H176.98V209.481H224.79V231.533C225.426 231.867 226.063 232.201 226.699 232.534V209.514H274.509V239.14C275.146 239.007 275.782 238.873 276.418 238.74V209.514H320.579C321.048 208.881 321.517 208.247 321.952 207.613H276.418V159.938H324.228V203.91C324.898 202.775 325.534 201.641 326.137 200.473V159.938H373.948V184.893C374.584 184.593 375.253 184.293 375.856 183.959V159.938H397.485C397.752 159.304 397.953 158.67 398.188 158.037H375.856V158.003ZM75.6332 158.003H27.8561V110.395H75.6667V158.003H75.6332ZM125.352 207.546H77.5751V159.938H125.386V207.546H125.352ZM125.352 158.003H77.5751V110.395H125.386V158.003H125.352ZM175.071 257.089H127.294V209.481H175.105V257.089H175.071ZM175.071 207.546H127.294V159.938H175.105V207.546H175.071ZM175.071 158.003H127.294V110.395H175.105V158.003H175.071ZM175.071 108.494H127.294V60.8526H175.105V108.494H175.071ZM175.071 58.951H127.294V11.3098H175.105V58.951H175.071ZM224.79 207.546H177.013V159.938H224.824V207.546H224.79ZM224.79 158.003H177.013V110.395H224.824V158.003H224.79ZM224.79 108.494H177.013V60.8526H224.824V108.494H224.79ZM274.509 207.546H226.732V159.938H274.543V207.546H274.509ZM274.509 158.003H226.732V110.395H274.543V158.003H274.509ZM274.509 108.494H226.732V60.8526H274.543V108.494H274.509ZM324.228 158.003H276.418V110.395H324.228V158.003ZM324.228 108.494H276.418V60.8526H324.228V108.494ZM373.948 158.003H326.137V110.395H373.948V158.003Z" fill="url(#paint1_linear_419_143)"/>
</g>
<defs>
<linearGradient id="paint0_linear_419_143" x1="175.593" y1="-11.4519" x2="233.482" y2="351.641" gradientUnits="userSpaceOnUse">
<stop offset="0.00537603" stop-color="#FFFEFF"/>
<stop offset="0.5684" stop-color="#F8F6F6"/>
<stop offset="0.9462" stop-color="#F0EEED"/>
</linearGradient>
<linearGradient id="paint1_linear_419_143" x1="253.497" y1="313.951" x2="147.315" y2="-15.4156" gradientUnits="userSpaceOnUse">
<stop offset="0.00047407" stop-color="#14C3D8"/>
<stop offset="0.6457" stop-color="#85E5F3"/>
<stop offset="0.9462" stop-color="#B5F3FF"/>
</linearGradient>
<clipPath id="clip0_419_143">
<rect width="401" height="270" fill="white"/>
</clipPath>
</defs>
</svg>
