<svg width="306" height="237" viewBox="0 0 306 237" fill="none" xmlns="http://www.w3.org/2000/svg">
<g filter="url(#filter0_d_513_207)">
<path d="M276.889 181.397C281.889 180.929 286.784 178.619 291 176.415C282.908 175.396 278.741 169.976 273.145 165.735C270.17 163.477 266.995 161.351 263.632 159.526C260.407 157.779 256.691 157.163 255.2 153.774C254.375 151.884 254.319 150.238 254.825 148.745C257.349 141.263 273.804 137.904 275.329 129.599C274.594 130.641 273.36 131.174 272.029 131.293C269.082 131.559 265.663 129.8 266.052 127.057C266.301 125.304 267.577 124.06 268.797 122.774C269.928 121.589 271.009 120.363 271.204 118.669C270.427 119.172 269.761 119.421 269.2 119.475C266.669 119.706 266.253 115.932 267.057 113.995C268.534 110.423 275.745 108.255 275.787 104.256C275.634 104.967 275.121 105.299 274.476 105.358C272.868 105.506 270.427 103.93 270.6 102.106C270.947 98.3853 273.714 95.2575 274.934 91.7505C276.453 87.3905 276.494 82.5388 277.805 78.0958C278.782 74.7784 279.295 71.3485 279.663 67.9481C279.802 66.6093 279.171 62.6107 280.072 61.3489C279.06 62.7588 278.04 64.1924 276.91 65.5608C275.724 66.9885 274.421 68.3332 272.875 69.4824C271.897 70.2111 269.692 70.9456 267.653 71.1293C265.011 71.3662 262.668 70.6672 263.722 67.7941C262.349 71.5321 256.781 75.0924 251.858 75.5367C248.502 75.8388 245.444 74.6896 244.237 71.1471C242.462 71.6921 234.266 77.8766 230.265 78.238C228.456 78.4039 227.499 77.379 228.379 74.1031C224.448 76.5675 220.572 79.2569 217.34 82.3788C213.173 86.4071 208.028 92.1059 201.177 92.728C201.177 92.728 201.177 92.728 201.17 92.728C197.828 93.0301 196.823 91.1937 196.823 88.8892C196.816 86.3301 198.043 83.1904 198.688 81.7272C200.824 76.8459 203.147 72.089 203.257 66.7989C201.607 68.2799 200.04 69.0026 198.619 69.127C195.276 69.4291 192.752 66.4672 191.983 62.5455C190.977 57.3976 192.683 52.0305 191.789 46.7227C191.165 49.2048 188.96 51.0649 186.02 51.3315C185.756 51.3552 185.479 51.367 185.201 51.3611C179.495 51.3019 180.133 41.3201 178.274 38.4825C178.177 39.6258 177.165 40.1827 176.042 40.2834C175.237 40.3545 174.377 40.2004 173.753 39.8628C171.389 38.5951 170.751 35.716 170.016 33.6367C168.234 28.5954 166.452 23.7911 163.595 19.0994C163.366 18.7262 162.34 16.5402 161.113 13.9989C159.144 9.92914 156.654 4.94711 156.072 5.00042C156.044 5.00042 156.023 5.0182 156.002 5.04189C150.226 12.5534 151.689 22.1206 145.102 29.1523C144.242 30.0705 143.487 31.0065 142.779 31.9484C141.337 33.8855 140.11 35.8582 138.619 37.8605C137.863 38.8794 136.636 39.3415 135.499 39.4481C133.647 39.614 132.025 38.8261 132.975 37.902C129.626 41.1542 132.025 48.0793 126.942 50.3007C126.436 50.5199 125.937 50.6443 125.437 50.6917C122.352 50.9701 119.55 48.1563 119.044 45.7808C118.018 50.7332 119.169 55.5612 118.476 60.407C118.046 63.4163 116.506 66.2302 114.295 67.4268C113.705 67.7467 113.06 67.9481 112.381 68.0133C110.724 68.1614 108.838 67.4683 106.827 65.543C106.757 69.9208 108.054 74.3341 109.898 78.398C111.112 81.0756 115.647 90.6783 109.302 91.5195C109.205 91.5313 109.101 91.5432 109.004 91.555C103.172 92.0822 96.287 85.637 93.3955 82.1241C90.2198 78.2736 85.7543 75.0806 81.4344 72.1838C82.0862 75.0272 81.4344 76.1587 80.0892 76.2831C79.8465 76.3068 79.5831 76.295 79.3057 76.2535C75.284 75.7026 67.4347 69.3936 65.7012 68.8071C64.6542 71.5617 62.5255 72.8117 60.05 73.0368C54.7317 73.5166 47.7908 69.2573 46.3554 64.9447C47.0766 67.1484 45.4679 68.0903 43.4501 68.274C41.6889 68.4339 39.6087 68.0133 38.4992 67.3439C34.7688 65.0928 32.4667 61.3844 30.2617 58.0789C31.801 60.3774 30.5252 66.5382 30.8719 69.2159C31.4405 73.6114 33.0283 77.7937 34.11 82.0945C35.1917 86.4012 34.1239 91.1344 35.9545 95.2693C36.5785 96.6851 37.6949 102.218 35.5731 102.408C34.9768 102.461 34.1239 102.094 32.9382 101.098C33.2156 102.816 34.3527 104.102 35.7118 105.275C37.785 107.058 40.3784 108.592 41.2867 111.039C42.0009 112.946 41.4393 116.246 39.3383 116.436C38.6934 116.495 37.9029 116.258 36.9668 115.6C37.2442 119.149 41.4531 120.736 41.7998 124.119C42.0356 126.435 39.6087 127.981 37.0847 128.206C35.2541 128.372 33.375 127.845 32.432 126.411C32.6747 128.094 33.5345 129.599 34.7688 130.979C40.8707 137.803 56.1393 141.766 51.6322 151.108C49.448 155.646 39.2967 158.484 34.8312 161.493C34.2418 161.89 33.6593 162.31 33.0907 162.737C27.5713 166.878 22.9394 172.008 15 172.796C17.8776 174.407 40.2327 181.214 40.0871 181.729C40.0109 181.996 39.8306 182.102 39.6087 182.12C39.1857 182.156 38.6171 181.889 38.3259 181.854C40.9123 184.282 46.612 182.635 50.1345 183.216C51.8194 183.494 53.7748 183.808 55.3211 184.49C56.2156 184.887 57.9282 187.57 56.4929 187.7C56.3126 187.718 56.0769 187.695 55.7787 187.612C58.0392 190.662 63.9331 189.863 68.2183 190.402C68.9325 190.491 69.6051 190.621 70.2083 190.811C76.5252 192.801 73.6129 198.05 68.558 199.75C70.6105 201.586 73.2038 202.131 76.0467 201.876C84.1317 201.148 94.1791 193.891 99.1646 191.29C100.669 190.502 102.243 189.649 103.866 188.767C108.733 186.107 114.1 183.139 119.675 180.734C126.81 180.005 133.009 178.358 137.544 176.048C140.644 175.906 143.708 176.196 146.718 177.061C148.749 177.648 150.719 177.867 152.639 177.873C152.112 180.953 149.602 183.044 151.246 191.93C153.603 204.655 155.774 208.079 156.155 209.909C156.342 210.804 156.98 211.224 157.847 211.147C158.755 211.064 159.92 210.425 161.05 209.187C163.262 206.776 160.295 205.52 158.755 202.872C157.216 200.224 155.26 194.762 155.26 194.762C151.1 175.959 156.183 183.015 155.115 179.709C155.011 179.946 154.713 179.999 154.512 180.023C154.713 180.005 154.914 179.899 155.115 179.709C155.503 179.336 155.891 178.649 156.266 177.665C156.751 177.612 157.23 177.553 157.715 177.488C159.809 178.228 162.416 178.441 165.44 178.169C167.811 177.956 170.439 177.44 173.261 176.652C173.587 176.723 173.906 176.8 174.232 176.889C174.863 177.061 175.487 177.245 176.111 177.44C179.148 180.71 184.765 183.252 191.913 184.721C194.874 186.374 197.766 188.062 200.581 189.608C206.489 192.842 221.577 204.791 231.534 203.896C233.372 203.731 235.029 203.132 236.423 201.959C231.43 200.129 228.712 194.797 235.105 192.979C235.764 192.789 236.506 192.677 237.289 192.605C238.371 192.511 239.55 192.493 240.743 192.475C241.935 192.457 243.135 192.44 244.279 192.333C246.359 192.143 248.224 191.681 249.41 190.431L249.653 190.153C249.542 190.183 249.438 190.194 249.341 190.206C247.801 190.343 248.425 188.287 248.994 187.777C250.492 186.433 253.466 186.184 255.47 185.906C255.602 185.888 255.734 185.87 255.872 185.858C257.058 185.751 258.445 185.858 259.866 185.959C261.281 186.06 262.73 186.16 264.034 186.048C265.324 185.929 266.481 185.603 267.327 184.851C267.085 184.875 266.648 185.047 266.266 185.082C265.941 185.112 265.656 185.041 265.566 184.679C265.15 182.884 275.801 181.498 276.889 181.397ZM258.743 121.578C258.778 121.56 258.209 121.903 257.301 122.454C258.084 121.986 258.549 121.702 258.743 121.578ZM132.94 42.8366C132.559 42.4456 132.254 42.1139 132.039 41.8769C132.26 42.1139 132.559 42.4456 132.94 42.8366Z" fill="#FFB800"/>
</g>
<defs>
<filter id="filter0_d_513_207" x="0" y="0" width="306" height="236.156" filterUnits="userSpaceOnUse" color-interpolation-filters="sRGB">
<feFlood flood-opacity="0" result="BackgroundImageFix"/>
<feColorMatrix in="SourceAlpha" type="matrix" values="0 0 0 0 0 0 0 0 0 0 0 0 0 0 0 0 0 0 127 0" result="hardAlpha"/>
<feOffset dy="10"/>
<feGaussianBlur stdDeviation="7.5"/>
<feComposite in2="hardAlpha" operator="out"/>
<feColorMatrix type="matrix" values="0 0 0 0 0 0 0 0 0 0 0 0 0 0 0 0 0 0 0.25 0"/>
<feBlend mode="normal" in2="BackgroundImageFix" result="effect1_dropShadow_513_207"/>
<feBlend mode="normal" in="SourceGraphic" in2="effect1_dropShadow_513_207" result="shape"/>
</filter>
</defs>
</svg>
