<svg width="70" height="71" viewBox="0 0 70 71" fill="none" xmlns="http://www.w3.org/2000/svg">
<path d="M63.2 6.4751H56.7V4.5751C56.7 2.2751 54.9 0.475098 52.6 0.475098C50.3 0.475098 48.5 2.2751 48.5 4.5751V6.4751H25.5V4.5751C25.5 2.2751 23.7 0.475098 21.4 0.475098C19.1 0.475098 17.3 2.2751 17.3 4.5751V6.5751C17.2 6.4751 17 6.4751 16.9 6.4751H11.5C7.7 6.4751 4.7 9.5751 4.7 13.2751V36.5751C4.7 37.3751 5.3 37.9751 6.1 37.9751C6.9 37.9751 7.5 37.3751 7.5 36.5751V20.5751H56.8C57.6 20.5751 58.2 19.9751 58.2 19.1751C58.2 18.3751 57.6 17.7751 56.8 17.7751H7.4V13.2751C7.4 10.9751 9.2 9.1751 11.5 9.1751H16.9C17 9.1751 17.1 9.1751 17.3 9.0751V10.8751C17.3 13.1751 19.1 14.9751 21.4 14.9751C23.7 14.9751 25.5 13.1751 25.5 10.8751V9.2751H48.5V10.9751C48.5 13.2751 50.3 15.0751 52.6 15.0751C54.9 15.0751 56.7 13.2751 56.7 10.9751V9.2751H63.2C65.5 9.2751 67.3 11.0751 67.3 13.3751V65.3751C67.3 66.7751 66.2 67.8751 64.8 67.8751C63.4 67.8751 62.3 66.7751 62.3 65.3751V61.8751C62.3 61.0751 61.7 60.4751 60.9 60.4751H45.1C44.3 60.4751 43.7 61.0751 43.7 61.8751C43.7 62.6751 44.3 63.2751 45.1 63.2751H59.6V65.4751C59.6 66.3751 59.8 67.1751 60.2 67.9751H5.2C3.8 67.9751 2.7 66.8751 2.7 65.4751V63.2751H33.3C34.1 63.2751 34.7 62.6751 34.7 61.8751C34.7 61.0751 34.1 60.4751 33.3 60.4751H19.7C22.1 58.3751 23.6 55.3751 23.6 51.9751C23.6 45.7751 18.6 40.7751 12.4 40.7751C6.2 40.7751 1.2 45.7751 1.2 51.9751C1.2 55.3751 2.7 58.3751 5.1 60.4751H1.4C0.6 60.4751 0 61.0751 0 61.8751V65.3751C0 68.1751 2.3 70.4751 5.2 70.4751H64.8C67.7 70.4751 70 68.1751 70 65.2751V13.2751C70 9.5751 66.9 6.4751 63.2 6.4751ZM22.7 10.9751C22.7 11.7751 22.1 12.3751 21.3 12.3751C20.5 12.3751 19.9 11.7751 19.9 10.9751V4.5751C19.9 3.7751 20.5 3.1751 21.3 3.1751C22.1 3.1751 22.7 3.7751 22.7 4.5751V10.9751ZM53.9 10.9751C53.9 11.7751 53.3 12.3751 52.5 12.3751C51.7 12.3751 51.1 11.7751 51.1 10.9751V4.5751C51.1 3.7751 51.7 3.1751 52.5 3.1751C53.3 3.1751 53.9 3.7751 53.9 4.5751V10.9751ZM3.9 51.8751C3.9 47.1751 7.7 43.3751 12.4 43.3751C17.1 43.3751 20.9 47.1751 20.9 51.8751C20.9 56.5751 17.1 60.3751 12.4 60.3751C7.7 60.3751 3.9 56.5751 3.9 51.8751Z" fill="#441401"/>
<path d="M64 18.275C63.7 17.975 63.4 17.875 63 17.875C62.6 17.875 62.3 17.975 62 18.275C61.7 18.575 61.6 18.875 61.6 19.275C61.6 19.675 61.7 19.975 62 20.275C62.3 20.575 62.6 20.675 63 20.675C63.4 20.675 63.7 20.575 64 20.275C64.3 19.975 64.4 19.675 64.4 19.275C64.4 18.875 64.3 18.475 64 18.275Z" fill="#441401"/>
<path d="M40.8 60.775C40.5 60.475 40.2 60.375 39.8 60.375C39.4 60.375 39.1 60.475 38.8 60.775C38.5 61.075 38.4 61.375 38.4 61.775C38.4 62.175 38.5 62.475 38.8 62.775C39.1 63.075 39.4 63.175 39.8 63.175C40.2 63.175 40.5 63.075 40.8 62.775C41.1 62.475 41.2 62.175 41.2 61.775C41.2 61.375 41.1 61.075 40.8 60.775Z" fill="#441401"/>
<path d="M30.9 42.0752C28 42.0752 25.7 44.3752 25.7 47.2752C25.7 50.1752 28 52.4752 30.9 52.4752C33.8 52.4752 36.1 50.1752 36.1 47.2752C36.1 44.3752 33.8 42.0752 30.9 42.0752ZM30.9 49.6752C29.5 49.6752 28.4 48.5752 28.4 47.1752C28.4 45.7752 29.5 44.6752 30.9 44.6752C32.3 44.6752 33.4 45.7752 33.4 47.1752C33.4 48.5752 32.3 49.6752 30.9 49.6752Z" fill="#441401"/>
<path d="M43.7 42.0752C40.8 42.0752 38.5 44.3752 38.5 47.2752C38.5 50.1752 40.8 52.4752 43.7 52.4752C46.6 52.4752 48.9 50.1752 48.9 47.2752C48.9 44.3752 46.6 42.0752 43.7 42.0752ZM43.7 49.6752C42.3 49.6752 41.2 48.5752 41.2 47.1752C41.2 45.7752 42.3 44.6752 43.7 44.6752C45.1 44.6752 46.2 45.7752 46.2 47.1752C46.2 48.5752 45 49.6752 43.7 49.6752Z" fill="#441401"/>
<path d="M56.5 42.0752C53.6 42.0752 51.3 44.3752 51.3 47.2752C51.3 50.1752 53.6 52.4752 56.5 52.4752C59.4 52.4752 61.7 50.1752 61.7 47.2752C61.7 44.3752 59.3 42.0752 56.5 42.0752ZM56.5 49.6752C55.1 49.6752 54 48.5752 54 47.1752C54 45.7752 55.1 44.6752 56.5 44.6752C57.9 44.6752 59 45.7752 59 47.1752C59 48.5752 57.8 49.6752 56.5 49.6752Z" fill="#441401"/>
<path d="M18.2 27.7749C15.3 27.7749 13 30.0749 13 32.9749C13 35.8749 15.3 38.1749 18.2 38.1749C21.1 38.1749 23.4 35.8749 23.4 32.9749C23.4 30.1749 21 27.7749 18.2 27.7749ZM18.2 35.4749C16.8 35.4749 15.7 34.3749 15.7 32.9749C15.7 31.5749 16.8 30.4749 18.2 30.4749C19.6 30.4749 20.7 31.5749 20.7 32.9749C20.6 34.3749 19.5 35.4749 18.2 35.4749Z" fill="#441401"/>
<path d="M43.7 27.7749C40.8 27.7749 38.5 30.0749 38.5 32.9749C38.5 35.8749 40.8 38.1749 43.7 38.1749C46.6 38.1749 48.9 35.8749 48.9 32.9749C48.9 30.1749 46.6 27.7749 43.7 27.7749ZM43.7 35.4749C42.3 35.4749 41.2 34.3749 41.2 32.9749C41.2 31.5749 42.3 30.4749 43.7 30.4749C45.1 30.4749 46.2 31.5749 46.2 32.9749C46.2 34.3749 45 35.4749 43.7 35.4749Z" fill="#441401"/>
<path d="M56.5 27.7749C53.6 27.7749 51.3 30.0749 51.3 32.9749C51.3 35.8749 53.6 38.1749 56.5 38.1749C59.4 38.1749 61.7 35.8749 61.7 32.9749C61.6 30.1749 59.3 27.7749 56.5 27.7749ZM56.5 35.4749C55.1 35.4749 54 34.3749 54 32.9749C54 31.5749 55.1 30.4749 56.5 30.4749C57.9 30.4749 59 31.5749 59 32.9749C58.9 34.3749 57.8 35.4749 56.5 35.4749Z" fill="#441401"/>
<path d="M30.9 27.7749C28 27.7749 25.7 30.0749 25.7 32.9749C25.7 35.8749 28 38.1749 30.9 38.1749C33.8 38.1749 36.1 35.8749 36.1 32.9749C36.1 30.1749 33.8 27.7749 30.9 27.7749ZM30.9 35.4749C29.5 35.4749 28.4 34.3749 28.4 32.9749C28.4 31.5749 29.5 30.4749 30.9 30.4749C32.3 30.4749 33.4 31.5749 33.4 32.9749C33.4 34.3749 32.3 35.4749 30.9 35.4749Z" fill="#441401"/>
<path d="M17.2 48.5752C16.7 48.0752 15.8 48.0752 15.3 48.5752L10.8 53.0752L9.30002 51.4752C8.80002 50.9752 7.90002 50.9752 7.40002 51.4752C6.90002 51.9752 6.90002 52.8752 7.40002 53.3752L9.90002 55.8752C10.2 56.1752 10.5 56.2752 10.9 56.2752C11.3 56.2752 11.6 56.1752 11.9 55.8752L17.3 50.4752C17.8 49.9752 17.8 49.0752 17.2 48.5752Z" fill="#FF190A"/>
</svg>
