<svg width="62" height="71" viewBox="0 0 62 71" fill="none" xmlns="http://www.w3.org/2000/svg">
<path d="M60.2 43.775C61.2 42.675 61.8 41.275 61.8 39.675C61.8 36.275 59 33.475 55.6 33.475H43.7C44.9 29.875 45.4 25.075 45.4 23.075V21.075C45.4 16.575 41.7 12.875 37.2 12.875H35.1C34.2 12.875 33.3 13.475 33.1 14.475L32 18.975C30.4 25.275 25.5 32.175 20.3 33.375C19.4 31.075 17.2 29.475 14.6 29.475H2.3C1.2 29.475 0.199997 30.375 0.199997 31.575V68.475C0.199997 69.575 1.1 70.575 2.3 70.575H14.6C17 70.575 19.2 69.175 20.2 67.075L27.2 69.375C29.5 70.175 31.9 70.575 34.3 70.575H51.5C54.9 70.575 57.7 67.775 57.7 64.375C57.7 63.575 57.5 62.775 57.3 62.075C59.9 61.375 61.8 58.975 61.8 56.175C61.8 54.575 61.2 53.175 60.2 52.075C61.2 50.975 61.8 49.575 61.8 47.975C61.8 46.375 61.2 44.875 60.2 43.775ZM16.6 64.275C16.6 65.375 15.7 66.375 14.5 66.375H4.3V33.575H14.6C15.7 33.575 16.7 34.475 16.7 35.675V64.275H16.6ZM51.5 45.875H55.6C56.7 45.875 57.7 46.775 57.7 47.975C57.7 49.075 56.8 50.075 55.6 50.075H51.5C50.4 50.075 49.4 50.975 49.4 52.175C49.4 53.275 50.3 54.275 51.5 54.275H55.6C56.7 54.275 57.7 55.175 57.7 56.375C57.7 57.475 56.8 58.475 55.6 58.475H51.5C50.4 58.475 49.4 59.375 49.4 60.575C49.4 61.775 50.3 62.675 51.5 62.675C52.6 62.675 53.6 63.575 53.6 64.775C53.6 65.875 52.7 66.875 51.5 66.875H34.3C32.3 66.875 30.3 66.575 28.5 65.975L20.8 63.375V37.475C24 36.875 27.2 34.875 30 31.475C32.8 28.175 35 23.875 36 19.875L36.7 16.975H37.1C39.4 16.975 41.2 18.775 41.2 21.075V23.075C41.2 25.875 40.3 31.075 39.2 33.475H35C33.9 33.475 32.9 34.375 32.9 35.575C32.9 36.775 33.8 37.675 35 37.675H55.5C56.6 37.675 57.6 38.575 57.6 39.775C57.6 40.875 56.7 41.875 55.5 41.875H51.4C50.3 41.875 49.3 42.775 49.3 43.975C49.5 44.975 50.4 45.875 51.5 45.875Z" fill="#441401"/>
<path d="M10.5 62.2752C11.6 62.2752 12.6 61.3752 12.6 60.1752C12.6 59.0752 11.7 58.0752 10.5 58.0752C9.29999 58.0752 8.39999 58.9752 8.39999 60.1752C8.39999 61.3752 9.39999 62.2752 10.5 62.2752Z" fill="#441401"/>
<path d="M39.2 0.475098C38.1 0.475098 37.1 1.3751 37.1 2.5751V6.7751C37.1 7.8751 38 8.8751 39.2 8.8751C40.3 8.8751 41.3 7.9751 41.3 6.7751V2.5751C41.3 1.3751 40.3 0.475098 39.2 0.475098Z" fill="#FF190A"/>
<path d="M30.5 9.4751L27.6 6.5751C26.8 5.7751 25.5 5.7751 24.7 6.5751C23.9 7.3751 23.9 8.6751 24.7 9.4751L27.6 12.3751C28.4 13.1751 29.7 13.1751 30.5 12.3751C31.3 11.5751 31.3 10.2751 30.5 9.4751Z" fill="#FF190A"/>
<path d="M53.7 6.5751C52.9 5.7751 51.6 5.7751 50.8 6.5751L47.9 9.4751C47.1 10.2751 47.1 11.5751 47.9 12.3751C48.7 13.1751 50 13.1751 50.8 12.3751L53.7 9.4751C54.5 8.6751 54.5 7.3751 53.7 6.5751Z" fill="#FF190A"/>
</svg>
