<svg width="460" height="310" viewBox="0 0 460 310" fill="none" xmlns="http://www.w3.org/2000/svg">
<g clip-path="url(#clip0_419_131)">
<path d="M405.347 108.632C401.468 108.632 397.665 109.054 394.017 109.82C388.448 73.8515 357.377 46.3104 319.776 46.3104C307.14 46.3104 295.234 49.4514 284.788 54.9673C267.274 22.255 232.746 0 192.995 0C136.882 0 91.2549 44.3568 89.1809 99.8221C82.8054 97.8685 76.0073 96.796 68.9789 96.796C30.8792 96.796 0 127.631 0 165.63C0 203.628 30.8792 234.425 68.9789 234.425C69.5934 234.425 70.2079 234.348 70.8224 234.348C79.464 277.479 117.602 310 163.422 310C199.947 310 231.555 289.315 247.264 259.055C261.551 269.742 279.219 276.177 298.46 276.177C338.365 276.177 371.741 248.866 381.112 211.978C388.409 215.579 396.629 217.686 405.309 217.686C435.496 217.686 459.962 193.286 459.962 163.178C460 133.071 435.535 108.632 405.347 108.632Z" fill="url(#paint0_linear_419_131)"/>
<path d="M431.156 181.411V126.75H445.943C445.29 126.022 444.637 125.256 443.946 124.567H431.195V115.144C430.465 114.761 429.735 114.454 429.006 114.071V124.567H374.122V69.8678H374.353C373.584 69.0251 372.739 68.259 371.933 67.4546V67.6844H317.088V46.5019C316.358 46.5402 315.628 46.5785 314.899 46.6551V67.7227H260.092V24.5533C259.362 23.9404 258.632 23.3276 257.903 22.7147V67.6844H203.058V12.9853H243.308C241.925 12.2192 240.543 11.4914 239.122 10.8019H203.058V0.536255C202.328 0.459646 201.598 0.344732 200.868 0.306427V10.8019H147.022C145.562 11.4914 144.141 12.2192 142.759 12.9853H143.796V67.6844H95.6717C95.4029 68.4122 95.0572 69.14 94.7884 69.8678H143.834V124.567H88.9889V99.7838C88.2592 99.5539 87.5294 99.4007 86.7997 99.2092V124.567H31.9546V107.636C31.2248 108.096 30.4567 108.556 29.7654 109.053V124.529H13.7113C13.1736 125.256 12.5975 125.984 12.0598 126.712H29.727V181.411H1.92035C2.11238 182.139 2.30442 182.867 2.49645 183.594H29.7654V222.167C30.4951 222.665 31.2248 223.125 31.9546 223.585V183.633H86.7997V238.332H71.821C72.013 239.06 72.1667 239.787 72.3587 240.515H86.7613V270.776C87.4526 271.734 88.2208 272.653 88.9505 273.572V240.477H143.796V295.176H112.763C113.915 295.904 115.029 296.67 116.219 297.359H143.796V307.855C144.525 308.008 145.255 308.2 145.985 308.353V297.398H200.83V302.262C201.56 301.956 202.289 301.611 203.019 301.267V297.398H210.47C211.699 296.67 212.928 295.98 214.119 295.214H203.019V240.515H257.864V265.835C258.594 266.218 259.324 266.601 260.053 266.984V240.554H314.899V274.568C315.628 274.415 316.358 274.262 317.088 274.108V240.554H367.747C368.284 239.826 368.822 239.098 369.321 238.37H317.088V183.633H371.933V234.118C372.701 232.816 373.431 231.514 374.122 230.173V183.633H428.967V212.285C429.697 211.94 430.465 211.595 431.156 211.212V183.633H455.967C456.275 182.905 456.505 182.177 456.774 181.449H431.156V181.411ZM86.7613 181.411H31.9546V126.75H86.7997V181.411H86.7613ZM143.796 238.294H88.9889V183.633H143.834V238.294H143.796ZM143.796 181.411H88.9889V126.75H143.834V181.411H143.796ZM200.83 295.176H146.023V240.515H200.868V295.176H200.83ZM200.83 238.294H146.023V183.633H200.868V238.294H200.83ZM200.83 181.411H146.023V126.75H200.868V181.411H200.83ZM200.83 124.567H146.023V69.8678H200.868V124.567H200.83ZM200.83 67.6844H146.023V12.9853H200.868V67.6844H200.83ZM257.864 238.294H203.058V183.633H257.903V238.294H257.864ZM257.864 181.411H203.058V126.75H257.903V181.411H257.864ZM257.864 124.567H203.058V69.8678H257.903V124.567H257.864ZM314.899 238.294H260.092V183.633H314.937V238.294H314.899ZM314.899 181.411H260.092V126.75H314.937V181.411H314.899ZM314.899 124.567H260.092V69.8678H314.937V124.567H314.899ZM371.933 181.411H317.088V126.75H371.933V181.411ZM371.933 124.567H317.088V69.8678H371.933V124.567ZM428.967 181.411H374.122V126.75H428.967V181.411Z" fill="url(#paint1_linear_419_131)"/>
</g>
<defs>
<linearGradient id="paint0_linear_419_131" x1="201.429" y1="-13.1485" x2="267.95" y2="403.718" gradientUnits="userSpaceOnUse">
<stop offset="0.00537603" stop-color="#FFFEFF"/>
<stop offset="0.5684" stop-color="#F8F6F6"/>
<stop offset="0.9462" stop-color="#F0EEED"/>
</linearGradient>
<linearGradient id="paint1_linear_419_131" x1="290.795" y1="360.463" x2="168.794" y2="-17.6364" gradientUnits="userSpaceOnUse">
<stop offset="0.00047407" stop-color="#14C3D8"/>
<stop offset="0.6457" stop-color="#85E5F3"/>
<stop offset="0.9462" stop-color="#B5F3FF"/>
</linearGradient>
<clipPath id="clip0_419_131">
<rect width="460" height="310" fill="white"/>
</clipPath>
</defs>
</svg>
